<svg width="34" height="34" viewBox="0 0 34 34" fill="none" xmlns="http://www.w3.org/2000/svg">
<path d="M28.2612 29.4204V26.6362C28.2612 25.1593 27.6745 23.7429 26.6302 22.6986C25.5859 21.6543 24.1695 21.0676 22.6926 21.0676H21.3005C20.9313 21.0676 20.5772 20.9209 20.3161 20.6599C20.055 20.3988 19.9083 20.0447 19.9083 19.6755V12.7148C19.9083 11.9763 19.615 11.2681 19.0928 10.746C18.5707 10.2238 17.8625 9.93049 17.1241 9.93049C16.3856 9.93049 15.6774 10.2238 15.1553 10.746C14.6331 11.2681 14.3398 11.9763 14.3398 12.7148V25.244L10.9987 20.7892C10.7393 20.4434 10.403 20.1627 10.0164 19.9694C9.62979 19.7761 9.20348 19.6755 8.77123 19.6755H8.16704C6.96284 19.6755 5.98695 20.6514 5.98695 21.8556C5.98695 22.2509 6.09415 22.6393 6.2974 22.9776L10.1634 29.4204M17.1241 5.75408V4.36194V5.75408ZM25.4769 14.1069H26.869H25.4769ZM7.37909 14.1069H8.77123H7.37909ZM10.6409 7.62372L9.65663 6.63948L10.6409 7.62372ZM23.6073 7.62372L24.5915 6.63948L23.6073 7.62372Z" fill="#044170"/>
<path d="M28.2612 29.4204V26.6362C28.2612 25.1593 27.6745 23.7429 26.6302 22.6986C25.5859 21.6543 24.1695 21.0676 22.6926 21.0676H21.3005C20.9313 21.0676 20.5772 20.9209 20.3161 20.6599C20.055 20.3988 19.9083 20.0447 19.9083 19.6755V12.7148C19.9083 11.9763 19.615 11.2681 19.0928 10.746C18.5707 10.2238 17.8625 9.93049 17.1241 9.93049V9.93049C16.3856 9.93049 15.6774 10.2238 15.1553 10.746C14.6331 11.2681 14.3398 11.9763 14.3398 12.7148V25.244L10.9987 20.7892C10.7393 20.4434 10.403 20.1627 10.0164 19.9694C9.62979 19.7761 9.20348 19.6755 8.77123 19.6755H8.16704C6.96284 19.6755 5.98695 20.6514 5.98695 21.8556C5.98695 22.2509 6.09415 22.6393 6.2974 22.9776L10.1634 29.4204M17.1241 5.75408V4.36194M25.4769 14.1069H26.869M7.37909 14.1069H8.77123M10.6409 7.62372L9.65663 6.63948M23.6073 7.62372L24.5915 6.63948" stroke="#044170" stroke-width="1.39214" stroke-linecap="round" stroke-linejoin="round"/>
</svg>
