<svg width="308" height="303" viewBox="0 0 308 303" fill="none" xmlns="http://www.w3.org/2000/svg">
<path d="M262.213 301.84C262.213 301.941 212.257 302.027 150.655 302.027C89.0519 302.027 39.0747 301.941 39.0747 301.84C39.0747 301.739 89.0231 301.653 150.655 301.653C212.286 301.653 262.213 301.746 262.213 301.84Z" fill="#044170"/>
<path d="M213.538 213.77C202.423 206.008 199.905 191.598 200.344 178.641C200.416 176.483 200.179 174.196 201.207 172.303C202.236 170.411 204.639 169.109 206.574 170.016C208.178 170.771 208.876 172.642 209.775 174.188C210.975 176.248 212.734 177.927 214.847 179.03C216.221 179.749 217.926 180.181 219.286 179.433C221.156 178.404 221.372 175.836 221.358 173.678C221.358 169.663 221.334 165.654 221.286 161.649C221.157 159.499 221.375 157.341 221.933 155.261C222.602 153.218 224.092 151.326 226.128 150.75C228.163 150.175 230.703 151.362 231.163 153.462C231.243 154.352 231.264 155.246 231.228 156.138C231.286 157.038 231.703 158.023 232.545 158.297C233.386 158.57 234.264 157.944 234.912 157.311C237.127 155.153 238.638 152.34 240.041 149.563C241.444 146.786 242.818 143.93 244.832 141.563C246.846 139.196 249.631 137.319 252.746 137.139C255.861 136.959 259.105 138.873 259.882 141.894C260.659 144.916 258.897 148.002 257.004 150.455C254.149 154.097 250.784 157.307 247.012 159.987C246.276 160.389 245.688 161.017 245.336 161.779C244.868 163.217 246.228 164.656 247.645 165.109C249.249 165.642 250.99 165.476 252.681 165.678C254.371 165.879 256.17 166.613 256.81 168.196C257.688 170.397 255.846 172.699 254.041 174.21C250.415 177.231 246.298 179.609 241.868 181.238C240.285 181.814 238.624 182.325 237.343 183.433C236.063 184.541 235.3 186.476 236.07 187.994C236.84 189.512 238.818 189.994 240.48 189.684C242.142 189.375 243.616 188.483 245.199 187.886C248.156 186.771 251.969 186.972 253.832 189.526C254.409 190.406 254.775 191.407 254.899 192.452C255.024 193.497 254.905 194.557 254.551 195.547C253.831 197.52 252.723 199.327 251.292 200.864C246.581 206.493 240.458 210.771 233.552 213.259C226.696 215.633 220.344 216.281 213.531 213.784" fill="#FFAB02"/>
<path d="M256.717 138.916C256.717 138.916 256.652 138.988 256.508 139.117L255.868 139.686C255.307 140.189 254.479 140.923 253.436 141.894C250.479 144.64 247.732 147.605 245.221 150.764C243.616 152.757 241.954 155.016 240.185 157.469C238.415 159.922 236.588 162.57 234.775 165.383C232.842 168.349 231.072 171.418 229.473 174.577C228.638 176.224 227.904 177.944 227.149 179.699L224.919 185.059C221.979 191.809 219.419 198.719 217.25 205.756C215.503 211.513 214.299 217.421 213.653 223.403C213.235 227.44 213.167 231.505 213.452 235.554C213.567 236.992 213.675 238.093 213.775 238.841C213.819 239.201 213.847 239.489 213.876 239.697V239.992C213.845 239.899 213.823 239.802 213.811 239.705C213.775 239.496 213.732 239.215 213.675 238.856C213.545 238.136 213.408 237 213.279 235.561C212.932 231.505 212.956 227.426 213.351 223.374C213.957 217.367 215.135 211.431 216.869 205.648C219.02 198.592 221.573 191.664 224.516 184.9L226.804 179.562C227.559 177.814 228.3 176.08 229.142 174.426C230.752 171.258 232.537 168.181 234.487 165.21C236.329 162.332 238.185 159.728 239.933 157.297C241.681 154.865 243.372 152.592 244.969 150.606C247.506 147.455 250.289 144.511 253.292 141.801C254.357 140.844 255.206 140.124 255.781 139.642L256.451 139.103C256.533 139.031 256.622 138.969 256.717 138.916Z" fill="#044170"/>
<path d="M229.235 174.411C229.134 174.115 229.064 173.809 229.027 173.498C228.912 172.901 228.782 172.059 228.631 170.965C228.322 168.807 228.005 165.85 227.667 162.577C227.329 159.304 226.948 156.34 226.631 154.203C226.466 153.138 226.322 152.282 226.221 151.685C226.142 151.38 226.101 151.066 226.099 150.75C226.223 151.038 226.312 151.34 226.365 151.649C226.523 152.239 226.703 153.088 226.905 154.16C227.315 156.318 227.717 159.253 228.056 162.534C228.394 165.814 228.681 168.692 228.904 170.929C229.012 171.937 229.106 172.793 229.178 173.476C229.234 173.785 229.253 174.098 229.235 174.411Z" fill="#044170"/>
<path d="M256.918 169.246C256.568 169.322 256.212 169.366 255.853 169.375C255.134 169.44 254.112 169.527 252.846 169.67C250.314 169.944 246.832 170.447 243.012 171.167C239.192 171.886 235.76 172.699 233.293 173.325C232.063 173.642 231.07 173.929 230.415 174.124C230.066 174.248 229.704 174.335 229.336 174.383C229.669 174.215 230.015 174.078 230.372 173.972C231.048 173.735 232.027 173.404 233.25 173.052C235.703 172.332 239.134 171.476 242.969 170.742C246.217 170.121 249.494 169.665 252.789 169.375C254.062 169.268 255.091 169.224 255.81 169.21C256.18 169.185 256.551 169.197 256.918 169.246Z" fill="#044170"/>
<path d="M217.221 205.144C217.145 205.04 217.082 204.927 217.034 204.806L216.559 203.806C216.149 202.936 215.595 201.648 214.934 200.073C213.596 196.907 211.891 192.476 210.078 187.555C208.265 182.634 206.596 178.203 205.33 175.001C204.711 173.447 204.2 172.174 203.819 171.224L203.416 170.196C203.36 170.077 203.321 169.951 203.301 169.822C203.378 169.926 203.44 170.039 203.488 170.16L203.963 171.16C204.366 172.03 204.927 173.318 205.589 174.893C206.927 178.059 208.632 182.49 210.445 187.411C212.257 192.332 213.926 196.763 215.193 199.965C215.811 201.519 216.322 202.792 216.696 203.742C216.862 204.152 216.998 204.461 217.106 204.77C217.162 204.889 217.201 205.015 217.221 205.144Z" fill="#044170"/>
<path d="M253.969 193.296C253.853 193.362 253.73 193.413 253.602 193.447L252.537 193.807L248.602 195.08C245.278 196.159 240.688 197.699 235.653 199.396C230.617 201.094 226.005 202.605 222.66 203.612C220.991 204.123 219.631 204.511 218.689 204.77L217.603 205.051C217.476 205.091 217.346 205.118 217.214 205.13C217.329 205.064 217.453 205.013 217.581 204.979L218.646 204.619L222.581 203.346C225.905 202.267 230.494 200.727 235.53 199.029C240.566 197.332 245.17 195.821 248.515 194.814C250.192 194.303 251.544 193.914 252.494 193.655L253.58 193.375C253.706 193.335 253.837 193.308 253.969 193.296Z" fill="#044170"/>
<path d="M238.976 18.7894L235.271 20.1131L233.681 15.2715C230.761 6.34367 221.451 1.60279 212.898 4.6171C204.344 7.63141 199.79 17.4225 202.711 26.3504L204.301 31.192L200.581 32.5229C199.163 33.073 198.011 34.1484 197.366 35.5258C196.72 36.9031 196.63 38.4763 197.114 39.9184L207.423 71.4212C207.637 72.135 207.992 72.7986 208.468 73.3725C208.943 73.9464 209.529 74.4188 210.191 74.7617C210.853 75.1046 211.577 75.311 212.32 75.3687C213.063 75.4263 213.81 75.3341 214.516 75.0973L252.911 61.3639C254.348 60.8147 255.516 59.7297 256.169 58.337C256.823 56.9444 256.911 55.3526 256.415 53.8964L246.098 22.3936C245.879 21.6817 245.518 21.0214 245.038 20.4519C244.557 19.8825 243.967 19.4157 243.302 19.0793C242.638 18.7429 241.912 18.5439 241.169 18.4941C240.426 18.4443 239.68 18.5447 238.976 18.7894ZM209.711 23.8252C208.923 21.5039 209.065 18.9678 210.105 16.7483C211.146 14.5289 213.005 12.7983 215.293 11.9191C216.423 11.5325 217.619 11.3775 218.811 11.4632C220.002 11.549 221.163 11.8739 222.226 12.4184C223.289 12.9629 224.231 13.7159 224.997 14.6325C225.762 15.5492 226.335 16.6106 226.681 17.7535L228.264 22.5951L211.293 28.6669L209.711 23.8252ZM231.293 51.7814L233.926 59.8243C233.974 59.9856 233.959 60.1593 233.882 60.3094C233.806 60.4594 233.675 60.5743 233.516 60.6301L229.825 61.9466C229.678 61.9873 229.521 61.9696 229.387 61.8972C229.253 61.8248 229.152 61.7032 229.106 61.5581L226.451 53.5511C224.988 53.4714 223.583 52.9463 222.426 52.0463C221.269 51.1464 220.414 49.9144 219.977 48.5153C219.351 46.6656 219.465 44.6456 220.295 42.8783C221.125 41.1109 222.607 39.7331 224.43 39.0335C225.33 38.726 226.283 38.6028 227.231 38.6713C228.18 38.7398 229.105 38.9986 229.952 39.4323C230.798 39.866 231.549 40.4657 232.159 41.1956C232.769 41.9255 233.225 42.7707 233.501 43.6809C233.964 45.1021 234.003 46.6274 233.612 48.0701C233.221 49.5127 232.417 50.81 231.3 51.803L231.293 51.7814Z" fill="#FFAB02"/>
<path d="M235.106 20.0268C235.106 20.1275 228.235 22.7102 219.689 25.782C211.142 28.8539 204.171 31.3215 204.135 31.2495C204.099 31.1776 211.006 28.5733 219.559 25.4943C228.113 22.4152 235.07 19.9333 235.106 20.0268Z" fill="#044170"/>
<path d="M243.264 21.3505C243.296 21.4129 243.322 21.4779 243.343 21.5447C243.401 21.6886 243.465 21.8756 243.552 22.1058C243.739 22.631 243.998 23.3576 244.321 24.2641L247.084 32.307C248.235 35.717 249.609 39.7601 251.134 44.2492C251.854 46.5009 252.702 48.8462 253.494 51.3137C253.917 52.5853 254.1 53.9247 254.033 55.2633C253.972 55.9594 253.774 56.6367 253.451 57.256C253.105 57.8733 252.643 58.418 252.091 58.8603C250.979 59.6716 249.746 60.3006 248.436 60.7236L244.731 62.0545L237.717 64.5652L225.84 68.7953L217.818 71.6154L215.66 72.3348L215.085 72.5218C215.023 72.5492 214.958 72.5662 214.89 72.5722C214.89 72.5722 214.948 72.5722 215.07 72.4859L215.631 72.2628L217.79 71.4499L225.768 68.5147L237.624 64.1983L244.624 61.666L248.328 60.3279C249.601 59.9221 250.799 59.3123 251.875 58.5222C252.389 58.1118 252.819 57.6062 253.141 57.033C253.446 56.4602 253.63 55.8309 253.681 55.1841C253.747 53.8944 253.571 52.6036 253.163 51.3785C252.386 48.9325 251.566 46.5657 250.825 44.3139C249.328 39.8176 247.947 35.7602 246.854 32.3502C245.76 28.9402 244.839 26.1993 244.206 24.2713C243.904 23.3288 243.674 22.595 243.487 22.0627L243.314 21.4872C243.292 21.4436 243.276 21.3977 243.264 21.3505Z" fill="#044170"/>
<path d="M223.005 11.4299C223.005 11.4299 222.624 11.2428 221.919 10.9551C220.914 10.569 219.851 10.3549 218.775 10.322C217.18 10.2673 215.593 10.5671 214.128 11.1997C212.346 11.9874 210.823 13.2615 209.732 14.8758C208.635 16.4855 208.046 18.3878 208.042 20.3361C208.057 21.933 208.299 23.5196 208.761 25.0482C209.135 26.3576 209.524 27.4007 209.783 28.1273C209.935 28.4964 210.061 28.8763 210.157 29.264C209.952 28.9189 209.781 28.5552 209.646 28.1777C209.351 27.4583 208.927 26.4367 208.509 25.1202C207.997 23.5755 207.718 21.9631 207.682 20.3361C207.663 18.3142 208.266 16.3352 209.409 14.6672C210.537 12.994 212.123 11.6804 213.977 10.8831C215.488 10.2471 217.124 9.96648 218.761 10.063C219.86 10.119 220.94 10.375 221.948 10.8184C222.217 10.9427 222.477 11.087 222.725 11.25C222.827 11.295 222.922 11.3557 223.005 11.4299Z" fill="#044170"/>
<path d="M223.336 39.5802C223.451 39.5107 223.571 39.4505 223.696 39.4004C224.056 39.2379 224.429 39.1055 224.811 39.0047C225.417 38.8258 226.043 38.7195 226.674 38.6882C227.533 38.642 228.392 38.7718 229.199 39.0695C231.041 39.7169 232.732 41.5946 233.566 44.1053C233.966 45.4527 233.966 46.8873 233.566 48.2347C233.122 49.6971 232.327 51.0284 231.25 52.1123L231.293 51.9181C232.25 54.5439 233.293 57.3927 234.372 60.3639L234.437 60.5437L234.257 60.6085L232.609 61.1552L229.012 62.3566L228.833 62.4142L228.775 62.2343C227.789 59.256 226.71 56.4791 225.897 53.7525L226.056 53.8748C224.649 53.758 223.308 53.2301 222.2 52.3569C221.197 51.5844 220.374 50.6023 219.79 49.4793C219.262 48.4833 219 47.3686 219.027 46.2419C219.06 45.0905 219.348 43.9607 219.869 42.9333C220.39 41.906 221.132 41.0067 222.041 40.2997C222.416 39.9958 222.836 39.753 223.286 39.5802C222.88 39.8214 222.486 40.0831 222.106 40.3644C221.107 41.2096 220.342 42.297 219.883 43.5226C219.49 44.4468 219.305 45.4466 219.344 46.4504C219.383 47.4542 219.643 48.4369 220.106 49.3282C220.681 50.4086 221.484 51.3512 222.459 52.0907C223.516 52.9207 224.795 53.4211 226.135 53.5295H226.257L226.293 53.6374C227.084 56.3136 228.171 59.1121 229.171 62.1049L228.933 61.9898L232.53 60.7883L234.171 60.2344L234.055 60.479C232.984 57.5078 231.948 54.6518 230.998 52.026V51.9181L231.084 51.8317C232.13 50.7928 232.91 49.517 233.358 48.1124C233.739 46.8235 233.739 45.4517 233.358 44.1629C232.573 41.7457 230.955 39.9112 229.199 39.2637C228.422 38.9641 227.593 38.8246 226.761 38.8536C226.139 38.8679 225.521 38.9523 224.919 39.1054C223.847 39.3716 223.343 39.6162 223.336 39.5802Z" fill="#044170"/>
<path d="M201.099 247.302L129.238 246.971C125.088 246.948 121.117 245.279 118.196 242.33C115.276 239.382 113.646 235.394 113.663 231.244L114.425 51.0979C114.434 49.0419 114.847 47.0077 115.643 45.1116C116.438 43.2155 117.599 41.4947 119.059 40.0476C120.52 38.6004 122.251 37.4553 124.154 36.6777C126.058 35.9001 128.096 35.5052 130.152 35.5156L202.006 35.8465C206.156 35.8674 210.128 37.5346 213.049 40.4819C215.971 43.4292 217.604 47.4156 217.588 51.5655L216.826 231.705C216.817 233.762 216.404 235.796 215.609 237.693C214.814 239.59 213.653 241.312 212.193 242.76C210.732 244.209 209.001 245.355 207.098 246.134C205.194 246.913 203.156 247.31 201.099 247.302Z" fill="#455A64"/>
<path d="M201.898 42.0406H187.97C187.516 42.049 187.067 42.1469 186.651 42.3286C186.234 42.5103 185.858 42.7724 185.542 43.0997C185.227 43.4271 184.979 43.8133 184.813 44.2365C184.647 44.6596 184.566 45.1112 184.575 45.5657V48.0908C184.583 48.5449 184.502 48.9962 184.336 49.4189C184.17 49.8416 183.922 50.2274 183.607 50.5542C183.291 50.881 182.914 51.1423 182.498 51.3233C182.081 51.5042 181.633 51.6012 181.179 51.6087L154.029 51.4864C153.11 51.4619 152.239 51.0739 151.606 50.4076C150.974 49.7412 150.631 48.851 150.655 47.9325V45.4074C150.678 44.4901 150.337 43.601 149.705 42.9349C149.074 42.2687 148.205 41.8799 147.288 41.8535H142.389L130.195 41.796C127.294 41.7787 124.505 42.9114 122.438 44.9461C120.371 46.9808 119.195 49.7516 119.166 52.6518L118.447 228.489C118.44 229.928 118.717 231.354 119.262 232.686C119.806 234.018 120.608 235.229 121.62 236.251C122.633 237.273 123.837 238.086 125.164 238.643C126.491 239.199 127.914 239.489 129.353 239.496L201.063 239.827C202.503 239.834 203.93 239.557 205.263 239.012C206.596 238.467 207.808 237.665 208.831 236.651C209.854 235.638 210.667 234.433 211.224 233.105C211.781 231.778 212.071 230.353 212.078 228.914L212.797 53.0763C212.814 50.1678 211.676 47.3716 209.632 45.3022C207.588 43.2328 204.806 42.0596 201.898 42.0406Z" fill="white"/>
<path d="M192.251 216.367L138.928 216.137C138.374 216.137 137.928 215.533 137.936 214.799L137.993 200.849C137.993 200.13 138.446 199.511 139 199.511L192.323 199.756C192.63 199.809 192.904 199.979 193.089 200.229C193.274 200.48 193.355 200.792 193.315 201.101L193.265 215.036C193.265 215.777 192.805 216.374 192.251 216.367Z" fill="#FFAB02"/>
<path d="M155.14 209.69C154.846 209.69 154.563 209.643 154.291 209.548C154.023 209.45 153.816 209.326 153.669 209.175L153.833 208.852C153.973 208.988 154.159 209.103 154.393 209.198C154.631 209.288 154.88 209.333 155.14 209.333C155.389 209.333 155.591 209.303 155.746 209.243C155.904 209.179 156.02 209.094 156.091 208.988C156.167 208.882 156.204 208.765 156.204 208.637C156.204 208.482 156.159 208.358 156.069 208.264C155.982 208.169 155.867 208.096 155.723 208.043C155.58 207.986 155.421 207.937 155.248 207.896C155.074 207.854 154.901 207.811 154.727 207.766C154.554 207.717 154.393 207.652 154.246 207.573C154.103 207.494 153.986 207.39 153.895 207.262C153.808 207.13 153.765 206.958 153.765 206.747C153.765 206.551 153.816 206.371 153.918 206.209C154.023 206.043 154.184 205.911 154.399 205.813C154.614 205.711 154.889 205.66 155.225 205.66C155.448 205.66 155.669 205.692 155.887 205.756C156.106 205.817 156.295 205.902 156.453 206.011L156.312 206.345C156.142 206.232 155.961 206.149 155.769 206.096C155.58 206.043 155.397 206.017 155.22 206.017C154.982 206.017 154.786 206.049 154.631 206.113C154.476 206.177 154.361 206.264 154.286 206.373C154.214 206.479 154.178 206.6 154.178 206.735C154.178 206.89 154.222 207.015 154.308 207.109C154.399 207.203 154.516 207.277 154.659 207.33C154.806 207.383 154.967 207.43 155.14 207.471C155.314 207.513 155.486 207.558 155.655 207.607C155.829 207.656 155.987 207.72 156.131 207.8C156.278 207.875 156.395 207.977 156.482 208.105C156.572 208.233 156.618 208.401 156.618 208.609C156.618 208.801 156.565 208.981 156.459 209.147C156.353 209.309 156.191 209.441 155.972 209.543C155.757 209.641 155.48 209.69 155.14 209.69ZM157.53 209.656V205.694H157.949V209.656H157.53ZM159.238 209.656V205.694H159.583L162.317 209.135H162.136V205.694H162.549V209.656H162.204L159.476 206.215H159.657V209.656H159.238ZM165.58 209.69C165.278 209.69 164.999 209.641 164.742 209.543C164.489 209.441 164.269 209.299 164.08 209.118C163.895 208.937 163.75 208.724 163.644 208.479C163.542 208.233 163.491 207.966 163.491 207.675C163.491 207.384 163.542 207.117 163.644 206.871C163.75 206.626 163.897 206.413 164.086 206.232C164.274 206.051 164.495 205.911 164.748 205.813C165.005 205.711 165.284 205.66 165.586 205.66C165.887 205.66 166.163 205.707 166.412 205.802C166.665 205.896 166.88 206.039 167.057 206.232L166.797 206.498C166.631 206.332 166.448 206.213 166.248 206.141C166.048 206.069 165.833 206.034 165.603 206.034C165.357 206.034 165.131 206.075 164.923 206.158C164.72 206.237 164.54 206.352 164.386 206.503C164.235 206.651 164.116 206.824 164.029 207.024C163.946 207.22 163.905 207.437 163.905 207.675C163.905 207.909 163.946 208.126 164.029 208.326C164.116 208.526 164.235 208.701 164.386 208.852C164.54 208.999 164.72 209.115 164.923 209.198C165.131 209.277 165.355 209.316 165.597 209.316C165.823 209.316 166.037 209.282 166.236 209.214C166.44 209.147 166.627 209.031 166.797 208.869L167.035 209.186C166.846 209.352 166.625 209.479 166.372 209.565C166.12 209.648 165.855 209.69 165.58 209.69ZM166.633 209.135V207.675H167.035V209.186L166.633 209.135ZM171.297 209.69C170.792 209.69 170.394 209.545 170.103 209.254C169.813 208.964 169.667 208.533 169.667 207.964V205.694H170.086V207.947C170.086 208.415 170.192 208.76 170.403 208.982C170.614 209.205 170.912 209.316 171.297 209.316C171.686 209.316 171.986 209.205 172.197 208.982C172.409 208.76 172.514 208.415 172.514 207.947V205.694H172.922V207.964C172.922 208.533 172.776 208.964 172.486 209.254C172.199 209.545 171.803 209.69 171.297 209.69ZM174.184 209.656V205.694H175.667C176.003 205.694 176.291 205.749 176.533 205.858C176.774 205.964 176.959 206.119 177.087 206.322C177.22 206.522 177.286 206.766 177.286 207.052C177.286 207.332 177.22 207.573 177.087 207.777C176.959 207.977 176.774 208.132 176.533 208.241C176.291 208.35 176.003 208.405 175.667 208.405H174.416L174.603 208.207V209.656H174.184ZM174.603 208.241L174.416 208.037H175.655C176.052 208.037 176.352 207.952 176.555 207.783C176.763 207.609 176.867 207.366 176.867 207.052C176.867 206.735 176.763 206.49 176.555 206.317C176.352 206.143 176.052 206.056 175.655 206.056H174.416L174.603 205.858V208.241Z" fill="#E8E8E3"/>
<path d="M149.564 93.7301L131.061 93.6461L131.046 97.0417L149.549 97.1256L149.564 93.7301Z" fill="#FFAB02"/>
<path opacity="0.1" d="M149.564 93.7301L131.061 93.6461L131.046 97.0417L149.549 97.1256L149.564 93.7301Z" fill="black"/>
<path d="M203.804 114.578C203.95 114.564 204.092 114.53 204.229 114.478C204.428 114.4 204.601 114.267 204.728 114.096C204.856 113.924 204.932 113.72 204.948 113.506C204.948 112.363 204.948 110.694 204.948 108.55C204.948 107.478 204.948 106.276 204.948 104.953C204.948 104.629 204.948 104.291 204.948 103.953C204.995 103.625 204.924 103.291 204.747 103.01C204.648 102.876 204.519 102.766 204.37 102.69C204.222 102.614 204.058 102.573 203.891 102.571H202.768H192.373L132.202 102.348C132.048 102.346 131.896 102.38 131.758 102.449C131.62 102.518 131.501 102.619 131.411 102.744C131.237 103.025 131.17 103.36 131.223 103.687C131.223 104.406 131.223 105.125 131.223 105.845C131.223 107.284 131.223 108.722 131.223 110.161C131.223 110.881 131.223 111.6 131.223 112.319C131.194 112.654 131.194 112.991 131.223 113.327C131.261 113.47 131.332 113.603 131.429 113.716C131.526 113.828 131.648 113.916 131.785 113.974C131.926 114.03 132.078 114.057 132.231 114.053H135.892L151.87 114.139L178.92 114.305L197.157 114.449L202.114 114.506H203.402C203.696 114.506 203.84 114.506 203.84 114.506H203.402H202.114H197.157H178.92L151.87 114.42L135.892 114.355H132.231C132.029 114.363 131.828 114.329 131.641 114.255C131.451 114.174 131.283 114.051 131.148 113.895C131.014 113.739 130.916 113.554 130.864 113.355C130.822 113.167 130.808 112.973 130.821 112.78V112.247C130.821 111.528 130.821 110.809 130.821 110.089C130.821 108.65 130.821 107.212 130.821 105.773C130.821 105.053 130.821 104.334 130.821 103.615C130.807 103.423 130.807 103.231 130.821 103.039C130.848 102.827 130.929 102.627 131.058 102.456C131.182 102.283 131.346 102.142 131.537 102.045C131.727 101.949 131.938 101.9 132.152 101.902L192.323 102.233L202.718 102.305H203.84C204.038 102.305 204.233 102.353 204.408 102.445C204.584 102.536 204.734 102.668 204.848 102.83C205.05 103.143 205.132 103.519 205.078 103.888C205.078 104.226 205.078 104.564 205.078 104.888C205.078 106.197 205.078 107.399 205.078 108.485C205.078 110.643 205.027 112.298 205.013 113.449C204.995 113.67 204.915 113.882 204.781 114.059C204.647 114.236 204.466 114.371 204.258 114.449C204.121 114.533 203.965 114.578 203.804 114.578Z" fill="#E0E0E0"/>
<path d="M170.46 105.96H136.619V109.132H170.46V105.96Z" fill="#FFAB02"/>
<path opacity="0.2" d="M170.46 105.96H136.619V109.132H170.46V105.96Z" fill="white"/>
<path d="M149.438 124.707L130.935 124.623L130.92 128.018L149.422 128.102L149.438 124.707Z" fill="#FFAB02"/>
<path opacity="0.1" d="M149.438 124.707L130.935 124.623L130.92 128.018L149.422 128.102L149.438 124.707Z" fill="black"/>
<path d="M203.337 145.556C203.482 145.538 203.626 145.512 203.768 145.477C203.969 145.413 204.154 145.307 204.311 145.165C204.467 145.024 204.591 144.85 204.675 144.657C204.788 144.366 204.833 144.054 204.804 143.743C204.804 143.398 204.804 143.024 204.804 142.606C204.804 141.772 204.804 140.822 204.804 139.729V135.161C204.839 134.83 204.766 134.497 204.596 134.211C204.418 133.918 204.139 133.7 203.812 133.599C203.453 133.535 203.088 133.516 202.725 133.542H192.373L132.411 133.319C132.088 133.32 131.777 133.437 131.535 133.651C131.292 133.864 131.136 134.157 131.094 134.477C131.094 135.161 131.094 135.916 131.094 136.635C131.094 138.074 131.094 139.513 131.094 140.952C131.094 141.671 131.094 142.391 131.094 143.11C131.067 143.446 131.082 143.784 131.137 144.117C131.227 144.409 131.412 144.662 131.662 144.837C131.928 145.005 132.24 145.086 132.554 145.067H133.554H135.633L151.554 145.146L178.51 145.311L196.682 145.455L201.625 145.513H196.682H178.51L151.54 145.484L135.619 145.426H132.49C132.101 145.45 131.714 145.346 131.389 145.132C131.062 144.905 130.823 144.572 130.713 144.189C130.648 143.824 130.629 143.451 130.655 143.081C130.655 142.362 130.655 141.642 130.655 140.923C130.655 139.484 130.655 138.045 130.655 136.607C130.655 135.887 130.655 135.168 130.655 134.448C130.708 134.037 130.908 133.659 131.219 133.385C131.531 133.111 131.931 132.959 132.346 132.959L192.308 133.29L202.661 133.369C203.046 133.346 203.433 133.372 203.812 133.448C204.185 133.57 204.501 133.827 204.696 134.168C204.883 134.485 204.963 134.852 204.927 135.218C204.927 135.556 204.927 135.887 204.927 136.218C204.927 137.52 204.927 138.714 204.927 139.815C204.927 140.916 204.927 141.844 204.927 142.693C204.927 143.103 204.927 143.484 204.927 143.837C204.953 144.158 204.901 144.482 204.776 144.779C204.682 144.978 204.547 145.154 204.38 145.295C204.212 145.437 204.016 145.54 203.804 145.599C203.647 145.612 203.489 145.598 203.337 145.556Z" fill="#E0E0E0"/>
<path d="M149.298 157.029L130.796 156.945L130.78 160.34L149.283 160.424L149.298 157.029Z" fill="#FFAB02"/>
<path opacity="0.1" d="M149.298 157.029L130.796 156.945L130.78 160.34L149.283 160.424L149.298 157.029Z" fill="black"/>
<path d="M203.193 177.864C203.338 177.847 203.482 177.821 203.625 177.785C203.825 177.722 204.009 177.616 204.165 177.476C204.321 177.336 204.446 177.164 204.531 176.972C204.644 176.682 204.688 176.369 204.66 176.059C204.66 175.706 204.66 175.339 204.66 174.915C204.66 174.088 204.66 173.131 204.66 172.037V167.469C204.695 167.138 204.622 166.805 204.452 166.519C204.27 166.232 203.992 166.017 203.668 165.915C203.31 165.849 202.945 165.827 202.581 165.85H192.229L132.267 165.627C131.944 165.628 131.633 165.746 131.391 165.959C131.148 166.172 130.992 166.466 130.95 166.786C130.95 167.505 130.95 168.224 130.95 168.944C130.95 170.383 130.95 171.821 130.95 173.26C130.95 173.98 130.95 174.699 130.95 175.419C130.923 175.752 130.938 176.088 130.993 176.418C131.079 176.712 131.265 176.966 131.518 177.138C131.783 177.31 132.096 177.391 132.411 177.368H135.54L151.46 177.454L178.417 177.62L196.589 177.764L201.531 177.821H196.589H178.417L151.46 177.742L135.54 177.677H132.411C132.021 177.704 131.634 177.6 131.31 177.382C130.982 177.156 130.744 176.823 130.634 176.44C130.569 176.075 130.55 175.702 130.576 175.332C130.576 174.613 130.576 173.893 130.576 173.174C130.576 171.735 130.576 170.296 130.576 168.858C130.576 168.138 130.576 167.419 130.576 166.663C130.627 166.253 130.826 165.875 131.136 165.6C131.446 165.326 131.846 165.175 132.259 165.174L192.222 165.505L202.574 165.584C202.96 165.561 203.347 165.587 203.725 165.663C204.099 165.785 204.414 166.042 204.61 166.383C204.796 166.7 204.877 167.067 204.84 167.433C204.84 167.771 204.84 168.109 204.84 168.433C204.84 169.735 204.84 170.929 204.84 172.03C204.84 173.131 204.84 174.059 204.84 174.908C204.84 175.318 204.84 175.699 204.84 176.052C204.868 176.373 204.816 176.697 204.689 176.994C204.596 177.193 204.461 177.369 204.293 177.51C204.126 177.652 203.929 177.755 203.718 177.814C203.549 177.872 203.369 177.889 203.193 177.864Z" fill="#E0E0E0"/>
<path d="M169.737 137.834L135.897 137.681L135.883 140.853L169.723 141.007L169.737 137.834Z" fill="#FFAB02"/>
<path opacity="0.2" d="M169.737 137.834L135.897 137.681L135.883 140.853L169.723 141.007L169.737 137.834Z" fill="white"/>
<path d="M138.957 171.994C138.936 172.283 138.83 172.56 138.653 172.79C138.476 173.02 138.235 173.193 137.961 173.287C137.687 173.381 137.39 173.393 137.11 173.321C136.829 173.248 136.575 173.095 136.38 172.88C136.186 172.665 136.058 172.397 136.014 172.111C135.97 171.824 136.011 171.53 136.133 171.267C136.254 171.003 136.45 170.781 136.696 170.628C136.942 170.474 137.228 170.397 137.518 170.404C137.919 170.427 138.295 170.606 138.564 170.904C138.834 171.201 138.975 171.593 138.957 171.994Z" fill="#FFAB02"/>
<path d="M143.54 172.016C143.554 172.219 143.526 172.422 143.458 172.614C143.39 172.805 143.284 172.981 143.145 173.13C143.006 173.278 142.839 173.397 142.652 173.478C142.466 173.559 142.265 173.601 142.061 173.601C141.858 173.601 141.657 173.559 141.47 173.478C141.284 173.397 141.116 173.278 140.978 173.13C140.839 172.981 140.732 172.805 140.664 172.614C140.597 172.422 140.569 172.219 140.583 172.016C140.569 171.813 140.597 171.609 140.664 171.418C140.732 171.226 140.839 171.05 140.978 170.902C141.116 170.753 141.284 170.635 141.47 170.553C141.657 170.472 141.858 170.431 142.061 170.431C142.265 170.431 142.466 170.472 142.652 170.553C142.839 170.635 143.006 170.753 143.145 170.902C143.284 171.05 143.39 171.226 143.458 171.418C143.526 171.609 143.554 171.813 143.54 172.016Z" fill="#FFAB02"/>
<path d="M148.13 172.037C148.108 172.327 148.003 172.603 147.826 172.833C147.648 173.063 147.408 173.236 147.133 173.33C146.859 173.425 146.563 173.436 146.282 173.364C146.001 173.292 145.747 173.138 145.553 172.923C145.358 172.708 145.231 172.441 145.187 172.154C145.143 171.867 145.184 171.574 145.305 171.31C145.426 171.046 145.622 170.824 145.868 170.671C146.115 170.517 146.401 170.44 146.691 170.447C147.091 170.472 147.466 170.652 147.735 170.949C148.004 171.246 148.145 171.637 148.13 172.037Z" fill="#FFAB02"/>
<path d="M152.712 172.059C152.691 172.348 152.585 172.625 152.408 172.855C152.231 173.085 151.99 173.258 151.716 173.352C151.442 173.446 151.146 173.458 150.865 173.386C150.584 173.313 150.33 173.16 150.135 172.945C149.941 172.73 149.813 172.462 149.769 172.175C149.725 171.889 149.766 171.595 149.888 171.331C150.009 171.068 150.205 170.846 150.451 170.692C150.697 170.539 150.983 170.461 151.273 170.469C151.673 170.493 152.048 170.673 152.317 170.97C152.586 171.268 152.728 171.658 152.712 172.059Z" fill="#FFAB02"/>
<path d="M157.295 172.073C157.275 172.363 157.17 172.641 156.994 172.872C156.818 173.102 156.577 173.276 156.303 173.372C156.029 173.467 155.732 173.48 155.451 173.408C155.169 173.337 154.915 173.184 154.72 172.969C154.524 172.754 154.396 172.486 154.352 172.199C154.307 171.912 154.348 171.618 154.469 171.354C154.59 171.09 154.786 170.868 155.033 170.714C155.279 170.561 155.566 170.483 155.856 170.491C156.255 170.515 156.628 170.694 156.897 170.989C157.166 171.285 157.309 171.674 157.295 172.073Z" fill="#FFAB02"/>
<path d="M161.885 172.095C161.865 172.383 161.761 172.659 161.587 172.89C161.412 173.12 161.174 173.294 160.902 173.391C160.629 173.487 160.335 173.502 160.054 173.434C159.773 173.365 159.519 173.216 159.322 173.004C159.125 172.793 158.994 172.529 158.945 172.244C158.897 171.959 158.932 171.666 159.048 171.401C159.163 171.136 159.354 170.911 159.596 170.753C159.838 170.595 160.121 170.511 160.41 170.512C160.815 170.527 161.198 170.702 161.474 170.999C161.751 171.295 161.898 171.69 161.885 172.095Z" fill="#FFAB02"/>
<path d="M166.467 172.116C166.481 172.319 166.454 172.523 166.386 172.714C166.318 172.906 166.211 173.082 166.073 173.23C165.934 173.379 165.766 173.498 165.58 173.579C165.393 173.66 165.192 173.702 164.989 173.702C164.786 173.702 164.584 173.66 164.398 173.579C164.211 173.498 164.044 173.379 163.905 173.23C163.766 173.082 163.66 172.906 163.592 172.714C163.524 172.523 163.496 172.319 163.51 172.116C163.496 171.914 163.524 171.71 163.592 171.518C163.66 171.327 163.766 171.151 163.905 171.002C164.044 170.854 164.211 170.735 164.398 170.654C164.584 170.573 164.786 170.531 164.989 170.531C165.192 170.531 165.393 170.573 165.58 170.654C165.766 170.735 165.934 170.854 166.073 171.002C166.211 171.151 166.318 171.327 166.386 171.518C166.454 171.71 166.481 171.914 166.467 172.116Z" fill="#FFAB02"/>
<path d="M171.05 172.138C171.03 172.426 170.927 172.703 170.752 172.933C170.577 173.163 170.339 173.337 170.067 173.434C169.795 173.531 169.5 173.546 169.219 173.477C168.939 173.408 168.684 173.259 168.487 173.048C168.29 172.836 168.159 172.572 168.11 172.287C168.062 172.002 168.097 171.709 168.213 171.444C168.329 171.18 168.519 170.954 168.761 170.796C169.003 170.638 169.286 170.555 169.575 170.555C169.98 170.57 170.363 170.745 170.639 171.042C170.916 171.339 171.063 171.733 171.05 172.138Z" fill="#FFAB02"/>
<path d="M175.632 172.16C175.613 172.449 175.508 172.727 175.332 172.958C175.155 173.189 174.915 173.363 174.641 173.458C174.366 173.554 174.07 173.566 173.789 173.495C173.507 173.423 173.253 173.27 173.057 173.055C172.862 172.84 172.734 172.573 172.689 172.286C172.645 171.999 172.686 171.705 172.807 171.441C172.928 171.177 173.124 170.954 173.37 170.8C173.617 170.647 173.903 170.569 174.194 170.577C174.592 170.601 174.966 170.78 175.235 171.076C175.504 171.371 175.646 171.76 175.632 172.16Z" fill="#FFAB02"/>
<g opacity="0.2">
<path d="M138.957 171.994C138.936 172.283 138.83 172.56 138.653 172.79C138.476 173.02 138.235 173.193 137.961 173.287C137.687 173.381 137.39 173.393 137.11 173.321C136.829 173.248 136.575 173.095 136.38 172.88C136.186 172.665 136.058 172.397 136.014 172.111C135.97 171.824 136.011 171.53 136.133 171.267C136.254 171.003 136.45 170.781 136.696 170.628C136.942 170.474 137.228 170.397 137.518 170.404C137.919 170.427 138.295 170.606 138.564 170.904C138.834 171.201 138.975 171.593 138.957 171.994Z" fill="white"/>
<path d="M143.54 172.016C143.554 172.219 143.526 172.422 143.458 172.614C143.39 172.805 143.284 172.981 143.145 173.13C143.006 173.278 142.839 173.397 142.652 173.478C142.466 173.559 142.265 173.601 142.061 173.601C141.858 173.601 141.657 173.559 141.47 173.478C141.284 173.397 141.116 173.278 140.978 173.13C140.839 172.981 140.732 172.805 140.664 172.614C140.596 172.422 140.569 172.219 140.583 172.016C140.569 171.813 140.596 171.609 140.664 171.418C140.732 171.226 140.839 171.05 140.978 170.902C141.116 170.753 141.284 170.635 141.47 170.553C141.657 170.472 141.858 170.431 142.061 170.431C142.265 170.431 142.466 170.472 142.652 170.553C142.839 170.635 143.006 170.753 143.145 170.902C143.284 171.05 143.39 171.226 143.458 171.418C143.526 171.609 143.554 171.813 143.54 172.016Z" fill="white"/>
<path d="M148.13 172.037C148.108 172.327 148.003 172.603 147.825 172.833C147.648 173.063 147.408 173.236 147.133 173.33C146.859 173.425 146.563 173.436 146.282 173.364C146.001 173.292 145.747 173.138 145.553 172.923C145.358 172.708 145.231 172.441 145.187 172.154C145.143 171.867 145.184 171.574 145.305 171.31C145.426 171.046 145.622 170.824 145.868 170.671C146.115 170.517 146.401 170.44 146.691 170.447C147.091 170.472 147.466 170.651 147.735 170.949C148.003 171.246 148.145 171.637 148.13 172.037Z" fill="white"/>
<path d="M152.712 172.059C152.691 172.348 152.585 172.625 152.408 172.855C152.231 173.085 151.99 173.258 151.716 173.352C151.442 173.446 151.146 173.458 150.865 173.386C150.584 173.313 150.33 173.16 150.135 172.945C149.941 172.73 149.813 172.462 149.769 172.175C149.725 171.889 149.766 171.595 149.888 171.331C150.009 171.068 150.205 170.846 150.451 170.692C150.697 170.539 150.983 170.461 151.273 170.469C151.673 170.493 152.048 170.673 152.317 170.97C152.586 171.268 152.728 171.658 152.712 172.059Z" fill="white"/>
<path d="M157.295 172.073C157.275 172.363 157.17 172.641 156.994 172.872C156.818 173.102 156.577 173.276 156.303 173.372C156.029 173.467 155.732 173.48 155.451 173.408C155.169 173.337 154.915 173.184 154.72 172.969C154.524 172.754 154.396 172.486 154.352 172.199C154.307 171.912 154.348 171.618 154.469 171.354C154.59 171.09 154.786 170.868 155.033 170.714C155.279 170.561 155.566 170.483 155.856 170.491C156.255 170.515 156.628 170.694 156.897 170.989C157.166 171.285 157.309 171.674 157.295 172.073Z" fill="white"/>
<path d="M161.885 172.095C161.865 172.383 161.761 172.659 161.587 172.89C161.412 173.12 161.174 173.294 160.902 173.391C160.629 173.487 160.335 173.502 160.054 173.434C159.773 173.365 159.519 173.216 159.322 173.004C159.125 172.793 158.994 172.529 158.945 172.244C158.896 171.959 158.932 171.666 159.048 171.401C159.163 171.136 159.354 170.911 159.596 170.753C159.838 170.595 160.121 170.511 160.41 170.512C160.815 170.527 161.198 170.702 161.474 170.999C161.751 171.295 161.898 171.69 161.885 172.095Z" fill="white"/>
<path d="M166.467 172.116C166.481 172.319 166.454 172.523 166.386 172.714C166.318 172.906 166.211 173.082 166.073 173.23C165.934 173.379 165.766 173.498 165.58 173.579C165.393 173.66 165.192 173.702 164.989 173.702C164.785 173.702 164.584 173.66 164.398 173.579C164.211 173.498 164.044 173.379 163.905 173.23C163.766 173.082 163.66 172.906 163.592 172.714C163.524 172.523 163.496 172.319 163.51 172.116C163.496 171.914 163.524 171.71 163.592 171.518C163.66 171.327 163.766 171.151 163.905 171.002C164.044 170.854 164.211 170.735 164.398 170.654C164.584 170.573 164.785 170.531 164.989 170.531C165.192 170.531 165.393 170.573 165.58 170.654C165.766 170.735 165.934 170.854 166.073 171.002C166.211 171.151 166.318 171.327 166.386 171.518C166.454 171.71 166.481 171.914 166.467 172.116Z" fill="white"/>
<path d="M171.05 172.138C171.03 172.426 170.927 172.703 170.752 172.933C170.577 173.163 170.339 173.337 170.067 173.434C169.795 173.531 169.5 173.545 169.219 173.477C168.939 173.408 168.684 173.259 168.487 173.048C168.29 172.836 168.159 172.572 168.11 172.287C168.062 172.002 168.097 171.709 168.213 171.444C168.329 171.18 168.519 170.954 168.761 170.796C169.003 170.638 169.286 170.555 169.575 170.555C169.98 170.57 170.363 170.745 170.639 171.042C170.916 171.339 171.063 171.733 171.05 172.138Z" fill="white"/>
<path d="M175.632 172.16C175.613 172.449 175.508 172.727 175.332 172.958C175.155 173.189 174.915 173.363 174.641 173.458C174.366 173.553 174.07 173.566 173.789 173.495C173.507 173.423 173.253 173.27 173.057 173.055C172.862 172.84 172.734 172.573 172.689 172.286C172.645 171.999 172.686 171.705 172.807 171.441C172.928 171.177 173.124 170.954 173.37 170.8C173.617 170.647 173.903 170.569 174.194 170.577C174.592 170.601 174.966 170.78 175.235 171.076C175.504 171.371 175.646 171.76 175.632 172.16Z" fill="white"/>
</g>
<path d="M169.122 68.3061C169.622 68.086 170.046 67.7238 170.341 67.2646C170.637 66.8054 170.79 66.2695 170.784 65.7234C170.802 65.3685 170.748 65.0135 170.625 64.68C170.502 64.3465 170.313 64.0416 170.068 63.7837C169.823 63.5259 169.529 63.3206 169.202 63.1803C168.876 63.04 168.524 62.9676 168.169 62.9676C167.813 62.9676 167.461 63.04 167.135 63.1803C166.808 63.3206 166.514 63.5259 166.269 63.7837C166.024 64.0416 165.835 64.3465 165.712 64.68C165.589 65.0135 165.535 65.3685 165.554 65.7234C165.543 66.2749 165.695 66.8173 165.992 67.2821C166.289 67.7469 166.717 68.1132 167.223 68.3349C163.194 68.9392 163.374 73.3132 163.374 73.3132L172.899 73.3563C172.899 73.3563 173.122 68.9032 169.122 68.3061Z" fill="#FFAB02"/>
<path opacity="0.1" d="M169.122 68.3061C169.622 68.086 170.046 67.7238 170.341 67.2646C170.637 66.8054 170.79 66.2695 170.784 65.7234C170.802 65.3685 170.748 65.0135 170.625 64.68C170.502 64.3465 170.313 64.0416 170.068 63.7837C169.823 63.5259 169.529 63.3206 169.202 63.1803C168.876 63.04 168.524 62.9676 168.169 62.9676C167.813 62.9676 167.461 63.04 167.135 63.1803C166.808 63.3206 166.514 63.5259 166.269 63.7837C166.024 64.0416 165.835 64.3465 165.712 64.68C165.589 65.0135 165.535 65.3685 165.554 65.7234C165.543 66.2749 165.695 66.8173 165.992 67.2821C166.289 67.7469 166.717 68.1132 167.223 68.3349C163.194 68.9392 163.374 73.3132 163.374 73.3132L172.899 73.3563C172.899 73.3563 173.122 68.9032 169.122 68.3061Z" fill="black"/>
<path d="M184.599 76.1775L150.651 76.0234L150.633 80.0808L184.581 80.2349L184.599 76.1775Z" fill="#FFAB02"/>
<path opacity="0.2" d="M184.599 76.1775L150.651 76.0234L150.633 80.0808L184.581 80.2349L184.599 76.1775Z" fill="white"/>
<path d="M59.7936 97.2047H59.4555L58.4771 97.2766C57.9476 97.3085 57.4211 97.3782 56.9016 97.4853C56.5651 97.5325 56.2314 97.5974 55.9017 97.6795L54.7866 97.9889C52.8887 98.5711 51.098 99.458 49.4845 100.615C47.3529 102.162 45.5729 104.143 44.2617 106.427C43.491 107.744 42.8777 109.147 42.4344 110.607C41.9685 112.194 41.7003 113.832 41.6358 115.485C41.593 116.353 41.6074 117.223 41.679 118.089C41.679 118.528 41.8013 118.967 41.8588 119.413C41.9073 119.862 41.9914 120.307 42.1106 120.744C42.7575 123.63 44.0701 126.326 45.9437 128.616C47.8173 130.905 50.2 132.725 52.9017 133.93C54.8571 134.774 56.953 135.245 59.0814 135.319C61.2797 135.44 63.4802 135.124 65.5561 134.391L66.1892 134.153H66.2755L66.3474 134.197L75.4191 138.801L75.153 139.031C74.1818 136.024 73.2465 133.11 72.3401 130.312V130.204L72.4192 130.125C74.6199 127.908 76.2535 125.194 77.1817 122.211C78.0223 119.485 78.2677 116.609 77.9011 113.78C77.575 111.265 76.7665 108.837 75.5199 106.629C74.4453 104.732 73.059 103.03 71.4192 101.593C70.0664 100.456 68.569 99.5029 66.9661 98.7586C65.7533 98.2355 64.4902 97.8378 63.1964 97.5716L61.7576 97.3342L60.7145 97.2551L60.0814 97.2119H59.8656C59.9373 97.2039 60.0097 97.2039 60.0814 97.2119H60.7217L61.7648 97.2551L63.2036 97.4637C64.5135 97.7104 65.7938 98.0938 67.0237 98.6076C68.6541 99.343 70.1785 100.294 71.5559 101.435C73.2259 102.865 74.6415 104.568 75.7429 106.471C77.0249 108.703 77.8582 111.163 78.1961 113.715C78.593 116.588 78.3648 119.513 77.527 122.29C76.5928 125.335 74.9339 128.107 72.6926 130.369L72.7358 130.182C73.6422 132.981 74.5846 135.894 75.563 138.894L75.6997 139.333L75.2896 139.125L66.2179 134.527H66.3762L65.7287 134.765C63.6129 135.509 61.3717 135.832 59.1318 135.715C56.9575 135.632 54.8178 135.144 52.8226 134.276C49.0167 132.646 45.8503 129.813 43.8084 126.211C42.8688 124.548 42.1826 122.753 41.7725 120.888C41.6602 120.44 41.5761 119.986 41.5207 119.528C41.4632 119.075 41.3696 118.629 41.3481 118.183C41.1534 115.623 41.4239 113.049 42.1466 110.586C42.601 109.106 43.2314 107.685 44.0243 106.356C45.3668 104.05 47.1838 102.057 49.3551 100.507C50.995 99.3471 52.8158 98.4671 54.7434 97.9025L55.8729 97.6148C56.2053 97.5377 56.5415 97.4776 56.88 97.4349C57.4049 97.3377 57.9364 97.28 58.4699 97.2623L59.4555 97.2263C59.5676 97.2112 59.6806 97.204 59.7936 97.2047Z" fill="#FFAB02"/>
<path d="M63.8942 113.981H62.5633L59.6857 109.938V107.284C59.6857 107.284 57.6282 107.154 57.8728 110.629C58.1174 114.104 57.8728 113.219 57.8728 113.219C57.8728 113.219 53.506 113.219 53.1463 113.614C52.7866 114.01 52.765 118.226 52.7146 120.578C52.6871 121.145 52.8498 121.705 53.177 122.169C53.5041 122.633 53.977 122.975 54.5204 123.139C54.6727 123.181 54.8299 123.203 54.988 123.204C56.0815 123.204 61.6425 122.319 61.6425 122.319H63.9374L63.8942 113.981Z" fill="#FFAB02"/>
<path d="M67.6999 113.269L66.8798 122.362H64.6064V113.456L67.6999 113.269Z" fill="#FFAB02"/>
<path d="M94.8143 298.394V292.243L83.7858 292.164L83.6923 301.466L84.3758 301.516C87.4188 301.71 99.8574 301.998 101.9 301.365C104.174 300.66 94.8143 298.394 94.8143 298.394Z" fill="#FFAB02"/>
<path d="M102.159 300.789C102.159 300.89 98.0301 300.976 92.9439 300.976C87.8577 300.976 83.7283 300.89 83.7283 300.789C83.7283 300.689 87.8577 300.602 92.9439 300.602C98.0301 300.602 102.159 300.689 102.159 300.789Z" fill="#044170"/>
<path d="M95.0086 299.653C94.915 299.602 95.0086 299.279 95.2316 298.933C95.4546 298.588 95.7567 298.444 95.8287 298.516C95.9006 298.588 95.7495 298.861 95.5337 299.156C95.3179 299.451 95.1021 299.703 95.0086 299.653Z" fill="#044170"/>
<path d="M95.7136 300.056C95.6129 300.056 95.6632 299.653 95.8791 299.271C96.0949 298.89 96.3826 298.66 96.4618 298.717C96.5409 298.775 96.4114 299.099 96.21 299.437C96.0086 299.775 95.8071 300.092 95.7136 300.056Z" fill="#044170"/>
<path d="M87.0519 300.761C87.0088 300.761 86.8433 300.631 86.6059 300.358C86.3161 300.006 85.9933 299.684 85.6419 299.394C85.2963 299.118 84.8847 298.937 84.4477 298.869C84.1096 298.825 83.8937 298.869 83.8722 298.825C83.8506 298.782 84.0592 298.631 84.4549 298.602C84.9771 298.591 85.4864 298.765 85.8937 299.092C86.2752 299.403 86.597 299.78 86.8433 300.207C87.0088 300.523 87.0951 300.732 87.0519 300.761Z" fill="#044170"/>
<path d="M95.0445 298.495C95.0949 298.581 94.9078 298.797 94.5913 298.912C94.2748 299.027 93.9942 298.984 93.9798 298.912C93.9654 298.84 94.1884 298.689 94.4618 298.588C94.7352 298.487 94.987 298.408 95.0445 298.495Z" fill="#044170"/>
<path d="M94.8719 297.897C94.8719 298.005 94.5841 298.092 94.21 298.099C93.8359 298.106 93.541 298.02 93.5482 297.919C93.5554 297.818 93.8503 297.725 94.21 297.718C94.5697 297.71 94.8575 297.797 94.8719 297.897Z" fill="#044170"/>
<path d="M121.972 298.394V292.243L110.943 292.164L110.85 301.372L111.533 301.423C114.576 301.617 127.022 301.998 129.058 301.365C131.331 300.66 121.972 298.394 121.972 298.394Z" fill="#FFAB02"/>
<path d="M129.317 300.804C129.317 300.905 125.195 300.991 120.101 300.991C115.008 300.991 110.893 300.905 110.893 300.804C110.893 300.703 115.015 300.617 120.101 300.617C125.188 300.617 129.317 300.703 129.317 300.804Z" fill="#044170"/>
<path d="M122.166 299.653C122.08 299.602 122.166 299.279 122.389 298.933C122.612 298.588 122.914 298.444 122.986 298.516C123.058 298.588 122.907 298.861 122.691 299.156C122.476 299.451 122.26 299.703 122.166 299.653Z" fill="#044170"/>
<path d="M122.871 300.056C122.778 300.056 122.821 299.653 123.044 299.271C123.267 298.89 123.547 298.66 123.627 298.717C123.706 298.775 123.569 299.099 123.368 299.437C123.166 299.775 122.972 300.092 122.871 300.056Z" fill="#044170"/>
<path d="M114.209 300.761C114.166 300.761 114.008 300.631 113.763 300.358C113.474 300.006 113.151 299.684 112.799 299.394C112.454 299.118 112.042 298.937 111.605 298.869C111.274 298.825 111.051 298.869 111.03 298.825C111.008 298.782 111.217 298.631 111.612 298.602C112.135 298.591 112.644 298.765 113.051 299.092C113.435 299.401 113.757 299.779 114.001 300.207C114.166 300.523 114.253 300.732 114.209 300.761Z" fill="#044170"/>
<path d="M122.202 298.495C122.253 298.581 122.065 298.797 121.749 298.912C121.432 299.027 121.152 298.984 121.137 298.912C121.123 298.84 121.346 298.689 121.619 298.588C121.893 298.487 122.145 298.408 122.202 298.495Z" fill="#044170"/>
<path d="M122.044 297.897C122.044 298.005 121.756 298.092 121.382 298.099C121.008 298.106 120.72 298.02 120.727 297.919C120.735 297.818 121.022 297.725 121.382 297.718C121.742 297.71 122.044 297.797 122.044 297.897Z" fill="#044170"/>
<path d="M162.604 115.737C162.316 115.442 161.604 115.585 161.604 115.585C161.675 115.171 161.675 114.748 161.604 114.334C161.474 113.931 160.568 114.01 160.568 114.01C160.526 113.671 160.526 113.328 160.568 112.988C160.575 112.913 160.559 112.838 160.522 112.772C160.484 112.706 160.428 112.654 160.359 112.622C159.931 112.447 159.47 112.363 159.007 112.377C158.453 111.981 160.698 108.837 161.532 107.83C162.367 106.823 162.215 106.039 161.474 106.039C160.964 106.039 158.345 109.06 157.539 110.075C156.734 111.089 154.597 113.909 154.525 111.658C154.453 109.406 153.547 107.708 152.978 107.42C152.41 107.132 151.806 107.809 152.115 108.435C152.387 109.146 152.556 109.892 152.619 110.65C152.697 111.255 152.67 111.868 152.539 112.463C152.301 113.571 151.976 114.658 151.568 115.715H151.511C151.511 115.715 135.813 130.772 134.677 131.844C133.662 132.808 113.26 130.7 109.166 130.269C107.775 130.065 106.371 129.969 104.965 129.981C103.188 130.06 102.872 130.312 101.102 130.333C96.6326 130.383 92.1736 130.775 87.7641 131.506C85.7675 131.845 83.9025 132.727 82.3725 134.054C80.8426 135.381 79.7064 137.102 79.0881 139.031C74.9659 151.908 65.628 182.39 63.9806 199.511C62.7357 201.769 61.6118 204.091 60.6137 206.468C59.4555 209.619 59.7361 209.727 60.1246 209.799C61.1749 209.993 62.3691 204.339 62.8151 205.705C63.2612 207.072 60.549 212.446 61.6497 212.605C63.0885 212.806 64.2324 206.849 64.3691 206.375C64.5057 205.9 65.2179 206.051 65.0885 206.497C64.8798 207.13 62.8583 213.842 64.2683 214.058C65.0453 214.173 65.1316 212.756 65.1316 212.756C65.1316 212.756 66.5704 206.331 67.2251 206.461C67.8798 206.59 67.1819 210.382 66.851 211.648C66.5201 212.914 66.9805 213.554 67.6567 213.245C68.1172 213.029 69.2179 209.18 69.52 207.928C69.8222 206.677 70.5775 203.209 71.5919 205.216C72.6062 207.223 74.1458 208.389 74.7789 208.418C74.9215 208.401 75.056 208.342 75.165 208.249C75.2739 208.155 75.3524 208.031 75.3903 207.893C75.4283 207.754 75.4239 207.608 75.3777 207.472C75.3315 207.336 75.2457 207.217 75.1314 207.13C74.5868 206.598 74.1195 205.993 73.7429 205.331C73.4073 204.816 73.1639 204.247 73.0235 203.648C72.7336 202.455 72.5649 201.235 72.5199 200.008L72.4048 199.288C74.0163 191.31 78.6565 167.894 85.3541 152.937L88.1023 158.592L89.2965 162.779L81.9729 180.857L113.21 180.447L108.548 162.505L114.21 143.801C120.332 143.937 136.051 144.167 138.669 142.98C141.964 141.542 159.007 120.017 159.007 120.017C160.118 119.154 161.182 118.232 162.194 117.255C162.194 117.255 163.23 116.384 162.604 115.737Z" fill="#FFBE9D"/>
<path d="M80.5989 167.498C81.5053 164.404 86.1599 149.11 86.1599 149.11C86.1599 149.11 88.4476 161.577 87.8433 163.081C87.2874 164.368 86.6307 165.609 85.8793 166.793C80.5989 174.829 81.2895 178.85 81.2895 178.85L113.195 177.879C113.267 173.419 110.627 163.045 110.08 161.39C109.533 159.735 111.353 154.318 111.353 154.318C111.353 154.318 114.951 150.657 114.821 148.772C114.753 147.079 114.543 145.394 114.195 143.736L133.619 144.455L133.008 131.29L105.109 128.499C104.138 131.24 95.3539 129.895 95.3539 129.895C85.8721 130.211 85.2822 131.952 81.3399 135.017C77.3975 138.081 70.8725 164.383 70.8725 164.383L80.5989 167.498Z" fill="#FFAB02"/>
<path d="M99.4617 164.383C98.9088 164.482 98.3456 164.511 97.7855 164.469C96.7423 164.469 95.3107 164.397 93.7352 164.239C92.1597 164.081 90.7353 163.858 89.7209 163.656C89.1616 163.584 88.6132 163.444 88.0879 163.239C88.6503 163.239 89.2115 163.292 89.7641 163.397C90.7857 163.527 92.2029 163.707 93.7712 163.865C95.3395 164.023 96.7639 164.131 97.7927 164.203C98.3534 164.21 98.9123 164.27 99.4617 164.383Z" fill="#044170"/>
<path d="M101.649 161.671C101.096 161.942 100.511 162.142 99.9077 162.268C97.0375 163.022 94.0764 163.373 91.1094 163.311C90.4954 163.331 89.8814 163.273 89.2821 163.138C89.888 163.062 90.4988 163.03 91.1094 163.045C92.2389 163.009 93.7928 162.93 95.505 162.728C97.2172 162.527 98.7423 162.239 99.8214 162.009C100.421 161.849 101.032 161.736 101.649 161.671Z" fill="#044170"/>
<path d="M112.382 149.57C112.368 150.119 112.293 150.664 112.159 151.196C111.972 152.196 111.684 153.563 111.318 155.059C110.951 156.556 110.598 157.937 110.282 158.872C110.154 159.408 109.966 159.926 109.72 160.419C109.761 159.872 109.862 159.332 110.023 158.807C110.296 157.685 110.605 156.39 110.951 154.973C111.296 153.556 111.627 152.261 111.9 151.139C111.998 150.598 112.159 150.072 112.382 149.57Z" fill="#044170"/>
<path d="M80.937 165.663C79.2727 165.406 77.6302 165.024 76.0234 164.52C74.3817 164.136 72.7706 163.631 71.2034 163.009C72.8669 163.27 74.5091 163.652 76.117 164.153C77.7591 164.535 79.3703 165.04 80.937 165.663Z" fill="#044170"/>
<path d="M114.54 143.578C114.269 143.624 113.992 143.624 113.72 143.578C112.969 143.501 112.231 143.324 111.526 143.052C110.349 142.61 109.278 141.927 108.381 141.046C107.484 140.165 106.781 139.106 106.318 137.937C105.805 136.652 105.587 135.268 105.677 133.887C105.709 132.748 106.05 131.639 106.663 130.679C107.094 130.032 107.738 129.556 108.483 129.333C108.682 129.278 108.888 129.252 109.095 129.254C109.238 129.254 109.31 129.254 109.31 129.254C109.31 129.254 109.008 129.254 108.526 129.448C107.843 129.701 107.263 130.174 106.879 130.794C105.9 132.333 105.627 135.146 106.67 137.772C107.156 139.01 107.916 140.122 108.893 141.024C109.694 141.762 110.616 142.355 111.62 142.779C112.561 143.151 113.541 143.419 114.54 143.578Z" fill="#044170"/>
<path d="M131.31 144.196C131.13 141.99 131.072 139.776 131.137 137.563C131.081 135.353 131.148 133.141 131.339 130.938C131.519 133.141 131.576 135.353 131.511 137.563C131.572 139.776 131.504 141.991 131.31 144.196Z" fill="#044170"/>
<path d="M104.922 129.305C105.001 127.7 105.167 125.887 105.167 125.887C105.167 125.887 109.138 125.449 109.375 121.348C109.613 117.247 109.375 107.787 109.375 107.787L102.181 104.104L94.1956 110.384L95.4258 130.887L102.749 131.355C103.309 131.37 103.852 131.163 104.26 130.779C104.667 130.395 104.905 129.864 104.922 129.305Z" fill="#FFBE9D"/>
<path d="M105.634 118.103C105.634 118.103 105.634 118.183 105.569 118.276C105.516 118.344 105.447 118.398 105.368 118.433C105.289 118.468 105.202 118.483 105.116 118.478C104.656 118.478 104.21 117.945 104.052 117.326C103.976 117.027 103.976 116.713 104.052 116.413C104.066 116.282 104.113 116.157 104.189 116.049C104.264 115.941 104.365 115.853 104.483 115.794C104.58 115.754 104.689 115.754 104.785 115.794C104.857 115.83 104.915 115.888 104.951 115.96C105.001 116.082 104.951 116.161 104.951 116.154C104.951 116.147 104.951 116.082 104.879 116.01C104.841 115.958 104.786 115.923 104.724 115.909C104.661 115.896 104.596 115.906 104.541 115.938C104.452 115.991 104.379 116.066 104.328 116.155C104.276 116.245 104.248 116.346 104.246 116.449C104.185 116.716 104.185 116.994 104.246 117.262C104.39 117.823 104.778 118.276 105.123 118.319C105.191 118.328 105.26 118.324 105.325 118.305C105.391 118.286 105.452 118.255 105.505 118.211C105.591 118.154 105.62 118.096 105.634 118.103Z" fill="#EB996E"/>
<path d="M111.843 105.571C111.289 103.687 109.282 102.751 107.454 102.233C104.67 101.442 101.663 101.097 98.9437 102.097C96.2244 103.097 92.9583 104.852 92.9583 107.852C91.354 107.722 90.4331 109.125 89.8001 110.866C89.3953 111.927 89.1528 113.043 89.0807 114.175C88.8792 118.103 87.7785 123.528 85.2318 126.405C83.793 128.01 81.8003 129.118 80.9802 131.118C80.2607 132.851 80.6348 134.909 79.9658 136.664C79.3687 138.211 78.0522 139.312 77.0882 140.657C76.106 142.183 75.5281 143.934 75.4085 145.745C75.289 147.556 75.6318 149.367 76.4047 151.009C77.1832 152.609 78.2793 154.034 79.6262 155.196C80.9731 156.359 82.5426 157.235 84.2391 157.771C87.5994 158.794 91.1829 158.829 94.5625 157.872C97.099 157.266 99.4651 156.093 101.483 154.441C103.548 152.754 104.966 150.406 105.498 147.793C106.008 144.858 105.188 141.873 104.577 138.952C102.663 129.722 103.21 129.24 105.627 120.672C105.685 120.521 105.713 120.362 105.757 120.211C105.8 120.06 105.821 119.988 105.85 119.873C105.919 119.534 105.955 119.19 105.958 118.844C105.605 118.976 105.222 119.003 104.853 118.924C104.485 118.845 104.147 118.663 103.879 118.398C103.61 118.116 103.423 117.767 103.337 117.387C103.25 117.007 103.269 116.611 103.39 116.24C103.559 115.835 103.812 115.47 104.132 115.169C104.452 114.868 104.831 114.637 105.246 114.492C106.044 114.161 106.9 113.988 107.685 113.622C109.346 112.83 110.497 111.19 111.282 109.471C111.926 108.279 112.125 106.896 111.843 105.571Z" fill="#044170"/>
<path d="M105.922 118.298C106.074 118.522 106.2 118.764 106.296 119.017C106.512 119.47 106.8 120.111 107.116 120.852L107.174 120.988H107.023L106.303 121.053C105.807 121.053 105.39 121.147 104.9 121.139C104.858 121.13 104.818 121.11 104.786 121.081C104.753 121.052 104.728 121.015 104.713 120.974C104.692 120.908 104.692 120.838 104.713 120.772C104.73 120.675 104.752 120.579 104.778 120.485L104.908 119.974C104.973 119.633 105.074 119.3 105.21 118.981C105.196 119.328 105.146 119.673 105.059 120.01L104.958 120.521C104.922 120.693 104.857 120.96 104.958 120.938C105.318 120.938 105.828 120.859 106.303 120.83L107.023 120.765L106.929 120.924C106.62 120.204 106.361 119.528 106.21 119.06C106.077 118.821 105.98 118.565 105.922 118.298Z" fill="#FFAB02"/>
<path d="M81.2895 178.85L113.195 177.879L127.08 232.079L124.526 294.25H107.656L109.72 233.403L97.3826 195.67L99.2818 296.66L82.2319 296.912L80.4406 201.986C80.3615 199.346 79.4982 193.396 79.8219 190.778L81.2895 178.85Z" fill="#044170"/>
<path d="M101.627 196.44C101.105 196.472 100.581 196.441 100.066 196.346C99.102 196.231 97.7855 196.03 96.3395 195.742C94.8935 195.454 93.5985 195.123 92.6633 194.857C92.1634 194.747 91.6797 194.573 91.2245 194.339C91.2245 194.231 93.5697 194.792 96.4474 195.375C99.325 195.958 101.641 196.332 101.627 196.44Z" fill="#455A64"/>
<path d="M124.353 290.84C124.353 290.941 120.533 291.027 115.821 291.027C111.109 291.027 107.282 290.941 107.282 290.84C107.282 290.739 111.102 290.653 115.821 290.653C120.54 290.653 124.353 290.732 124.353 290.84Z" fill="#455A64"/>
<path d="M99.1308 294.034C99.1308 294.142 95.4186 294.221 90.8432 294.221C86.2678 294.221 82.5628 294.142 82.5628 294.034C82.5628 293.926 86.275 293.847 90.8432 293.847C95.4114 293.847 99.1308 293.933 99.1308 294.034Z" fill="#455A64"/>
<path d="M96.9294 293.775C96.8287 293.775 96.3826 271.711 95.9294 244.496C95.4762 217.281 95.21 195.202 95.3035 195.202C95.397 195.202 95.8575 217.259 96.3035 244.489C96.7495 271.718 97.0373 293.775 96.9294 293.775Z" fill="#455A64"/>
<path d="M122.087 290.84C122.079 290.742 122.079 290.643 122.087 290.545V289.682C122.087 288.905 122.145 287.79 122.188 286.373C122.288 283.495 122.432 279.315 122.612 274.193C123.001 263.891 123.547 249.69 124.145 234.014C124.145 233.863 124.145 233.719 124.145 233.59V233.64C120.368 218.533 116.95 204.821 114.468 194.9L111.591 183.167C111.26 181.792 111.008 180.721 110.828 179.972C110.742 179.62 110.684 179.346 110.634 179.138C110.606 179.044 110.589 178.948 110.584 178.85C110.621 178.941 110.65 179.035 110.67 179.131C110.728 179.332 110.8 179.605 110.9 179.951C111.094 180.67 111.375 181.764 111.735 183.131C112.454 185.907 113.469 189.907 114.735 194.835C117.238 204.749 120.691 218.425 124.519 233.554V233.604C124.519 233.734 124.519 233.885 124.519 234.029C123.878 249.704 123.296 263.898 122.871 274.2C122.648 279.33 122.461 283.481 122.332 286.373C122.26 287.811 122.202 288.905 122.166 289.682C122.166 290.049 122.123 290.336 122.116 290.545C122.117 290.644 122.107 290.743 122.087 290.84Z" fill="#455A64"/>
<path d="M116.584 232.324C115.372 232.722 114.124 232.999 112.857 233.151C111.303 233.417 109.979 233.604 109.382 233.633V233.489C109.577 233.547 109.677 233.583 109.677 233.611C109.677 233.64 109.555 233.611 109.354 233.611H108.922L109.354 233.482C109.915 233.316 111.238 233.043 112.792 232.762C114.039 232.492 115.308 232.345 116.584 232.324Z" fill="#455A64"/>
<path d="M116.289 234.388C115.166 234.44 114.042 234.389 112.929 234.237C111.805 234.214 110.686 234.091 109.584 233.87C111.832 233.687 114.095 233.862 116.289 234.388Z" fill="#455A64"/>
<path opacity="0.2" d="M81.1528 179.994C81.5307 180.479 82.0066 180.879 82.5495 181.168C83.0925 181.457 83.6902 181.628 84.3038 181.67C85.5888 181.822 86.8886 181.798 88.167 181.598C96.4042 180.685 105.131 179.843 113.195 177.879C102.757 178.462 91.7281 178.267 81.2895 178.85L81.1816 179.742" fill="black"/>
<g opacity="0.2">
<path d="M91.9079 194.706L97.7927 217.54L97.3826 195.67L91.9079 194.706Z" fill="black"/>
</g>
</svg>
