<svg width="46" height="40" viewBox="0 0 46 40" fill="none" xmlns="http://www.w3.org/2000/svg">
<path d="M45.7923 26.6504C45.7923 33.5701 40.1827 39.1796 33.263 39.1796L14.4692 39.1796C12.547 39.1796 10.9888 37.6214 10.9888 35.6993L10.9888 12.0329C10.9888 8.18863 14.1052 5.07222 17.9495 5.07222L42.3119 5.07222C44.2341 5.07222 45.7923 6.63043 45.7923 8.55257L45.7923 26.6504Z" fill="#D0DCF1"/>
<path d="M19.2834 13.4327C19.0662 13.4327 18.8897 13.2564 18.8897 13.0389V12.3698C18.8897 12.1526 19.0659 11.976 19.2834 11.976C19.5006 11.976 19.6772 12.1523 19.6772 12.3698V13.0389C19.6772 13.2564 19.5006 13.4327 19.2834 13.4327Z" fill="#FFAB02"/>
<path d="M17.628 13.4327C17.4108 13.4327 17.2342 13.2564 17.2342 13.0389V12.3698C17.2342 12.1526 17.4105 11.976 17.628 11.976C17.8452 11.976 18.0217 12.1523 18.0217 12.3698V13.0389C18.0215 13.2564 17.8455 13.4327 17.628 13.4327Z" fill="#FFAB02"/>
<path d="M15.9727 13.4327C15.7555 13.4327 15.579 13.2564 15.579 13.0389V12.3698C15.579 12.1526 15.7552 11.976 15.9727 11.976C16.1899 11.976 16.3665 12.1523 16.3665 12.3698V13.0389C16.3665 13.2564 16.1902 13.4327 15.9727 13.4327Z" fill="#FFAB02"/>
<path d="M19.2834 16.169C19.0662 16.169 18.8897 15.9927 18.8897 15.7753V15.1064C18.8897 14.8892 19.0659 14.7126 19.2834 14.7126C19.5006 14.7126 19.6772 14.8889 19.6772 15.1064V15.7753C19.6772 15.9927 19.5006 16.169 19.2834 16.169Z" fill="#FFAB02"/>
<path d="M17.628 16.169C17.4108 16.169 17.2342 15.9927 17.2342 15.7753V15.1064C17.2342 14.8892 17.4105 14.7126 17.628 14.7126C17.8452 14.7126 18.0217 14.8889 18.0217 15.1064V15.7753C18.0215 15.9927 17.8455 16.169 17.628 16.169Z" fill="#FFAB02"/>
<path d="M15.9727 16.169C15.7555 16.169 15.579 15.9927 15.579 15.7753V15.1064C15.579 14.8892 15.7552 14.7126 15.9727 14.7126C16.1899 14.7126 16.3665 14.8889 16.3665 15.1064V15.7753C16.3665 15.9927 16.1902 16.169 15.9727 16.169Z" fill="#FFAB02"/>
<path d="M19.2834 18.9055C19.0662 18.9055 18.8897 18.7292 18.8897 18.5117V17.8426C18.8897 17.6254 19.0659 17.4489 19.2834 17.4489C19.5006 17.4489 19.6772 17.6251 19.6772 17.8426V18.5117C19.6772 18.7292 19.5006 18.9055 19.2834 18.9055Z" fill="#FFAB02"/>
<path d="M17.628 18.9055C17.4108 18.9055 17.2342 18.7292 17.2342 18.5117V17.8426C17.2342 17.6254 17.4105 17.4489 17.628 17.4489C17.8452 17.4489 18.0217 17.6251 18.0217 17.8426V18.5117C18.0215 18.7292 17.8455 18.9055 17.628 18.9055Z" fill="#FFAB02"/>
<path d="M15.9727 18.9055C15.7555 18.9055 15.579 18.7292 15.579 18.5117V17.8426C15.579 17.6254 15.7552 17.4489 15.9727 17.4489C16.1899 17.4489 16.3665 17.6251 16.3665 17.8426V18.5117C16.3665 18.7292 16.1902 18.9055 15.9727 18.9055Z" fill="#FFAB02"/>
<path d="M19.2834 21.6413C19.0662 21.6413 18.8897 21.4651 18.8897 21.2476V20.5784C18.8897 20.3613 19.0659 20.1847 19.2834 20.1847C19.5006 20.1847 19.6772 20.361 19.6772 20.5784V21.2476C19.6772 21.4651 19.5006 21.6413 19.2834 21.6413Z" fill="#FFAB02"/>
<path d="M17.628 21.6413C17.4108 21.6413 17.2342 21.4651 17.2342 21.2476V20.5784C17.2342 20.3613 17.4105 20.1847 17.628 20.1847C17.8452 20.1847 18.0217 20.361 18.0217 20.5784V21.2476C18.0215 21.4651 17.8455 21.6413 17.628 21.6413Z" fill="#FFAB02"/>
<path d="M15.9727 21.6413C15.7555 21.6413 15.579 21.4651 15.579 21.2476V20.5784C15.579 20.3613 15.7552 20.1847 15.9727 20.1847C16.1899 20.1847 16.3665 20.361 16.3665 20.5784V21.2476C16.3665 21.4651 16.1902 21.6413 15.9727 21.6413Z" fill="#FFAB02"/>
<path d="M19.2834 24.3777C19.0662 24.3777 18.8897 24.2014 18.8897 23.9839V23.3151C18.8897 23.0979 19.0659 22.9213 19.2834 22.9213C19.5006 22.9213 19.6772 23.0976 19.6772 23.3151V23.9839C19.6772 24.2011 19.5006 24.3777 19.2834 24.3777Z" fill="#FFAB02"/>
<path d="M17.628 24.3777C17.4108 24.3777 17.2342 24.2014 17.2342 23.9839V23.3151C17.2342 23.0979 17.4105 22.9213 17.628 22.9213C17.8452 22.9213 18.0217 23.0976 18.0217 23.3151V23.9839C18.0215 24.2011 17.8455 24.3777 17.628 24.3777Z" fill="#FFAB02"/>
<path d="M15.9727 24.3777C15.7555 24.3777 15.579 24.2014 15.579 23.9839L15.5792 23.3151C15.5792 23.0979 15.7555 22.9213 15.973 22.9213C16.1902 22.9213 16.3667 23.0976 16.3667 23.3151V23.9839C16.3665 24.2011 16.1902 24.3777 15.9727 24.3777Z" fill="#FFAB02"/>
<path d="M4.72451 27.1009C4.72451 27.3181 4.90079 27.4946 5.11826 27.4946H29.0963C29.3135 27.4946 29.49 27.3184 29.49 27.1009C29.49 26.8837 29.3138 26.7071 29.0963 26.7071H28.3684V15.4021C28.3684 15.1849 28.1921 15.0083 27.9747 15.0083L21.546 15.0086V6.85823C21.546 6.72039 21.474 6.59299 21.3565 6.52159C21.2393 6.44993 21.0926 6.44554 20.9707 6.50896L13.6618 10.3144C13.5313 10.3822 13.4501 10.5167 13.4501 10.6636V17.7828H6.37656C6.15938 17.7828 5.98282 17.9591 5.98282 18.1766V26.7072H5.11738C4.90019 26.7069 4.72418 26.8832 4.72418 27.1007L4.72451 27.1009ZM21.5461 20.9721H27.5813V26.7075L21.5461 26.7072V20.9721ZM21.5461 18.2359H27.5813V20.1848L21.5461 20.1846V18.2359ZM21.5461 15.7957H27.5813V17.4489H21.5461V15.7957ZM14.2371 10.9027L20.7583 7.50725V26.7068H14.2371V10.9027ZM8.71675 23.5623C8.71675 22.7452 9.3642 22.0801 10.1602 22.0801C10.9562 22.0801 11.6039 22.7449 11.6039 23.5623V26.7073H8.71675V23.5623ZM6.77029 18.5702H13.4499V26.7072H12.3914V23.5622C12.3914 22.3109 11.3909 21.2928 10.1602 21.2928C8.93008 21.2928 7.92955 22.3106 7.92955 23.5622V26.7072H6.77029V18.5702Z" fill="#FFAB02"/>
</svg>
