<svg width="46" height="40" viewBox="0 0 46 40" fill="none" xmlns="http://www.w3.org/2000/svg">
<path d="M45.9187 26.6504C45.9187 33.5701 40.3092 39.1796 33.3894 39.1796L14.5956 39.1796C12.6734 39.1796 11.1152 37.6214 11.1152 35.6993L11.1152 12.0329C11.1152 8.18863 14.2316 5.07222 18.0759 5.07222L42.4384 5.07222C44.3605 5.07222 45.9187 6.63043 45.9187 8.55257L45.9187 26.6504Z" fill="#D0DCF1"/>
<path d="M17.3729 7.16046C14.8871 7.16046 12.8634 9.20265 12.8634 11.6991C12.8634 13.2783 13.6743 14.6728 14.8989 15.4856C13.4199 15.9801 12.1401 16.9044 11.2014 18.1136C10.6824 17.7144 10.1025 17.3934 9.47742 17.1633C10.4254 16.4596 11.0448 15.3291 11.0448 14.0585C11.0448 11.9412 9.33245 10.208 7.22801 10.208C5.12358 10.208 3.41119 11.9412 3.41119 14.0585C3.41119 15.3298 4.03118 16.4608 4.97993 17.1646C2.46811 18.0915 0.674194 20.5182 0.674194 23.3742V25.3804C0.674451 25.5333 0.735627 25.6798 0.844097 25.7875C0.952566 25.8955 1.09934 25.9556 1.25228 25.9551H10.0541C10.0754 25.9574 10.0967 25.9587 10.1181 25.9585H24.6282C24.6495 25.9587 24.6711 25.9574 24.6922 25.9551H33.4947C33.8111 25.9538 34.0673 25.6971 34.0681 25.3804V23.3742C34.0681 20.5182 32.2773 18.0915 29.7668 17.1643C30.7155 16.4608 31.3355 15.3295 31.3355 14.0582C31.3355 11.941 29.6231 10.2077 27.5187 10.2077C25.4143 10.2077 23.7019 11.941 23.7019 14.0582C23.7019 15.3288 24.3216 16.4595 25.2696 17.1631C24.6432 17.3936 24.063 17.7157 23.5433 18.1159C22.6051 16.906 21.3271 15.9804 19.8481 15.4856C21.0723 14.6728 21.8836 13.2783 21.8836 11.6991C21.8836 9.20265 19.8589 7.16046 17.373 7.16046H17.3729ZM17.3729 8.31201C19.2321 8.31201 20.7309 9.82087 20.7309 11.6991C20.7309 13.5626 19.2554 15.0568 17.4168 15.0807C17.4022 15.0807 17.3878 15.0787 17.3729 15.0787C17.358 15.0787 17.3438 15.0807 17.3289 15.0807C15.4903 15.0571 14.0159 13.5627 14.0159 11.6991C14.0159 9.8206 15.5134 8.31201 17.3726 8.31201H17.3729ZM7.22808 11.3595C8.70325 11.3595 9.89335 12.5567 9.89335 14.0584C9.89335 15.55 8.71864 16.7422 7.25736 16.7584C7.24759 16.7584 7.23808 16.7574 7.22806 16.7574C7.21829 16.7574 7.20878 16.7584 7.19876 16.7584C5.73748 16.7422 4.56277 15.5498 4.56277 14.0584C4.56277 12.5568 5.75287 11.3595 7.22804 11.3595H7.22808ZM27.5184 11.3595C28.9935 11.3595 30.1836 12.5567 30.1836 14.0584C30.1836 15.55 29.0089 16.7422 27.5476 16.7584C27.5379 16.7584 27.5284 16.7574 27.5183 16.7574C27.5086 16.7574 27.4991 16.7584 27.489 16.7584C26.0277 16.7422 24.853 15.5498 24.853 14.0584C24.853 12.5568 26.0431 11.3595 27.5183 11.3595H27.5184ZM17.3288 16.2322C17.3435 16.2325 17.3578 16.2343 17.3728 16.2343C17.3874 16.2343 17.4018 16.2322 17.4167 16.2322C21.104 16.2559 24.0549 19.2322 24.0549 22.9579L24.0546 24.8066H10.6914V22.9579C10.6914 19.2318 13.6415 16.2559 17.3283 16.2322H17.3288ZM7.18399 17.9112C7.19864 17.9115 7.21304 17.9133 7.22795 17.9133C7.24286 17.9133 7.25699 17.9112 7.2719 17.9112C8.51906 17.9213 9.65725 18.3513 10.5636 19.0708C9.91503 20.2182 9.53999 21.5427 9.53999 22.9582V24.8025H1.82528V23.3741C1.82528 20.3461 4.20602 17.9349 7.18386 17.911L7.18399 17.9112ZM27.4743 17.9112C27.4892 17.9115 27.5033 17.9133 27.5182 17.9133C27.5331 17.9133 27.5473 17.9112 27.5622 17.9112C30.54 17.9349 32.9208 20.3465 32.9208 23.3744V24.8025H25.2021L25.2018 22.9582C25.2018 21.5435 24.8278 20.22 24.1806 19.0728C25.0871 18.3523 26.2261 17.9212 27.4743 17.9112H27.4743Z" fill="#FFAB02"/>
</svg>
