<svg width="46" height="40" viewBox="0 0 46 40" fill="none" xmlns="http://www.w3.org/2000/svg">
<path d="M45.6659 26.6504C45.6659 33.5701 40.0563 39.1796 33.1366 39.1796L14.3427 39.1796C12.4206 39.1796 10.8624 37.6214 10.8624 35.6993L10.8624 12.0329C10.8624 8.18863 13.9788 5.07222 17.8231 5.07222L42.1855 5.07222C44.1077 5.07222 45.6659 6.63043 45.6659 8.55257L45.6659 26.6504Z" fill="#D0DCF1"/>
<path d="M20.1283 16.6581C19.9607 16.6581 19.805 16.612 19.6668 16.5379V16.5399C19.6668 16.8036 19.5643 17.0512 19.3783 17.2367C19.1924 17.4227 18.9449 17.5252 18.6815 17.5252C18.5115 17.5252 18.3539 17.4779 18.2141 17.4018C18.2 17.6431 18.1036 17.8686 17.9316 18.0408C17.7456 18.2267 17.4982 18.3292 17.2346 18.3292C16.7109 18.3292 16.2857 17.9176 16.2551 17.4017C16.093 17.4892 15.9099 17.5352 15.7209 17.523C15.2058 17.4892 14.8024 17.0442 14.8024 16.5095V12.0779L14.2978 12.9521C14.1056 13.2865 13.7458 13.4941 13.3584 13.4941C13.1697 13.4941 12.9832 13.4446 12.8181 13.35C12.6124 13.2308 12.4653 13.0394 12.4042 12.8104C12.3427 12.5813 12.3745 12.3417 12.4934 12.1364C12.4935 12.1364 14.1444 9.27751 14.2452 9.1019C14.2571 9.07549 14.2912 8.99891 14.3203 8.93364C14.348 8.87132 14.3718 8.80737 14.3946 8.74308C14.8924 7.33752 16.1252 6.46442 17.6119 6.46442C19.5426 6.46442 21.1133 8.16763 21.1133 10.2612L21.1135 15.6727C21.1135 15.9361 21.0112 16.1835 20.8254 16.3697C20.6394 16.5556 20.3919 16.6581 20.1282 16.6581L20.1283 16.6581ZM17.612 6.98796C16.3344 6.98796 15.3162 7.70955 14.888 8.91817C14.8606 8.99492 14.8321 9.07167 14.7988 9.14645C14.7022 9.36309 14.7022 9.36309 14.675 9.39424L14.6714 9.39113C14.5366 9.64548 14.1361 10.339 12.9467 12.3984C12.8978 12.4829 12.8849 12.581 12.9098 12.6748C12.935 12.7686 12.9956 12.8476 13.0794 12.896C13.3395 13.0454 13.6957 12.9489 13.8439 12.6907L14.8375 10.9704C14.8969 10.8679 15.0169 10.8175 15.1321 10.8487C15.2465 10.8793 15.3261 10.9832 15.3261 11.1016V16.5097C15.3261 16.7649 15.5186 16.9851 15.7552 17.0007C15.8917 17.0079 16.0189 16.9621 16.1145 16.8667C16.2015 16.7798 16.2493 16.664 16.2493 16.5402V13.0032C16.2493 12.8585 16.3666 12.7413 16.5112 12.7413C16.6559 12.7413 16.7731 12.8584 16.7731 13.0032L16.773 17.3441C16.773 17.5987 16.9801 17.8058 17.2346 17.8058C17.3583 17.8058 17.4744 17.7579 17.5615 17.671C17.6484 17.5839 17.6963 17.4678 17.6963 17.3441V13.0032C17.6963 12.8585 17.8133 12.7413 17.9581 12.7413C18.1028 12.7413 18.22 12.8584 18.22 13.0032L18.2199 16.4995V16.5402C18.2199 16.7945 18.427 17.0016 18.6817 17.0016C18.8052 17.0016 18.9209 16.9536 19.0085 16.8663C19.0954 16.7796 19.1433 16.6638 19.1433 16.54V13.003C19.1433 12.8584 19.2604 12.7411 19.4052 12.7411C19.5499 12.7411 19.6671 12.8582 19.6671 13.003L19.6668 15.6728C19.6668 15.9275 19.8739 16.1346 20.1283 16.1346C20.2521 16.1346 20.3678 16.0866 20.4548 15.9998C20.542 15.9126 20.5897 15.7965 20.5897 15.6728L20.5899 10.2613C20.5899 8.45659 19.254 6.98802 17.6119 6.98802L17.612 6.98796Z" fill="#FFAB02"/>
<path d="M9.83859 20.4192L13.6389 18.1394C14.0971 17.8642 14.6867 17.9811 14.9806 18.4057C15.0878 18.5604 15.1426 18.7406 15.1511 18.9241C15.2928 18.8501 15.4469 18.81 15.6039 18.81C15.6842 18.81 15.7649 18.82 15.8446 18.8398C16.1 18.9036 16.3151 19.0632 16.4504 19.2888C16.5859 19.5148 16.6254 19.7796 16.5616 20.0347C16.5027 20.2706 16.3592 20.4693 16.1597 20.6055C16.2992 20.6879 16.4196 20.8002 16.5052 20.9432C16.6407 21.1692 16.6802 21.4339 16.6165 21.6892C16.5528 21.9442 16.3932 22.1594 16.1672 22.295L16.1659 22.2958C16.303 22.378 16.4212 22.4892 16.5059 22.6301C16.6415 22.856 16.681 23.1209 16.6172 23.3762C16.5533 23.6314 16.3937 23.8465 16.168 23.982L11.5278 26.7658C10.6617 27.2852 9.66053 27.4644 8.70905 27.2701C7.74904 27.0739 6.95398 26.5221 6.47056 25.7162C5.70552 24.4412 5.82017 22.9348 6.76919 21.785C6.81265 21.7325 6.85545 21.6791 6.89432 21.6236C6.93548 21.5651 6.98353 21.4962 6.99993 21.4726C7.09816 21.2971 8.70104 18.4092 8.70088 18.4095C8.86274 18.1175 9.16612 17.9521 9.47901 17.9523C9.62497 17.9523 9.77305 17.9882 9.90967 18.064C10.0746 18.1562 10.2132 18.2905 10.3101 18.4523C10.5094 18.7844 10.5164 19.2 10.3288 19.5363L9.83859 20.4192ZM9.86138 18.7215C9.81055 18.6368 9.74068 18.5692 9.65524 18.5213C9.47862 18.4236 9.25625 18.4872 9.15901 18.6632C8.01206 20.7295 7.62109 21.4337 7.4702 21.6842L7.47365 21.6851C7.46102 21.727 7.46102 21.727 7.32294 21.9243C7.27604 21.9911 7.22504 22.0552 7.17305 22.1183C6.357 23.107 6.26225 24.3513 6.91935 25.4469C7.32638 26.1255 7.99909 26.5907 8.81362 26.757C9.63702 26.9244 10.5049 26.7687 11.2581 26.3167L15.8988 23.5328C16.0048 23.4693 16.0795 23.3685 16.1094 23.2489C16.1392 23.1295 16.1207 23.0054 16.0571 22.8995C15.9262 22.6813 15.642 22.6097 15.4239 22.741L13.1346 24.1145C13.0106 24.1889 12.8495 24.1489 12.7753 24.0248C12.7008 23.9008 12.741 23.7399 12.865 23.6655L15.1545 22.292L15.898 21.846C16.0039 21.7823 16.0789 21.6815 16.1087 21.5623C16.1386 21.4427 16.12 21.3184 16.0564 21.2126C15.9254 20.9944 15.6412 20.9233 15.4232 21.0542L12.3902 22.8737C12.2659 22.9483 12.1053 22.908 12.0309 22.784C11.9564 22.66 11.9968 22.4992 12.1206 22.4247L15.8431 20.1916C15.949 20.128 16.0238 20.0273 16.0536 19.9078C16.0835 19.7884 16.0649 19.6642 16.0015 19.5583C15.938 19.4525 15.8372 19.3777 15.7176 19.3479C15.5974 19.3181 15.4738 19.3366 15.3681 19.3999L14.679 19.8133C14.6789 19.8133 14.6789 19.8135 14.6787 19.8135H14.6786L11.6457 21.633C11.5214 21.7078 11.3607 21.6674 11.2864 21.5433C11.2119 21.4193 11.2523 21.2584 11.3761 21.184L14.4091 19.3645C14.5151 19.3008 14.59 19.2 14.6198 19.0808C14.6526 18.9499 14.6277 18.8161 14.55 18.7039C14.4152 18.5089 14.1269 18.4571 13.9083 18.5885L9.27095 21.3704C9.16944 21.4311 9.0394 21.4164 8.95428 21.3342C8.86901 21.2519 8.84982 21.1225 8.90722 21.019L9.8715 19.2817C9.96826 19.108 9.96448 18.8935 9.86133 18.7216L9.86138 18.7215Z" fill="#FFAB02"/>
<path d="M27.9983 25.7161C27.515 26.5221 26.7202 27.0738 25.76 27.2699C24.8084 27.4639 23.8075 27.285 22.9413 26.7656L18.3006 23.9817C18.0748 23.8463 17.9151 23.6311 17.8511 23.3756C17.7876 23.1206 17.8273 22.8557 17.9626 22.6301C18.0471 22.489 18.1655 22.3778 18.3027 22.2957L18.3014 22.2949C18.0756 22.1594 17.9159 21.9442 17.8523 21.6891C17.7883 21.4339 17.828 21.1689 17.9634 20.9429C18.0507 20.7978 18.1702 20.6843 18.3067 20.6038C18.1086 20.4675 17.9659 20.2696 17.9072 20.0347C17.8432 19.7794 17.8829 19.5145 18.0184 19.2889C18.1537 19.063 18.369 18.9035 18.6242 18.8397C18.7039 18.8197 18.7847 18.8098 18.8648 18.8098C19.0219 18.81 19.176 18.8499 19.3177 18.924C19.3264 18.7405 19.381 18.5602 19.4883 18.4056C19.7823 17.9814 20.3714 17.8639 20.8302 18.1393L24.6304 20.4188L24.1406 19.5365C23.9527 19.1996 23.9595 18.7841 24.1588 18.4518C24.2559 18.2901 24.3946 18.1558 24.5604 18.0628C24.6967 17.9874 24.8443 17.9516 24.9899 17.9516C25.3026 17.9518 25.6063 18.1168 25.768 18.4089C26.3315 19.4242 27.3948 21.3389 27.4696 21.4726C27.4855 21.4957 27.5336 21.5646 27.5747 21.6231C27.6139 21.6787 27.6562 21.7319 27.7 21.7847C28.6489 22.9349 28.7633 24.4412 27.9983 25.7161L27.9983 25.7161ZM27.296 22.1184C27.2438 22.0553 27.1927 21.9908 27.1461 21.9244C27.0044 21.7234 27.0008 21.7181 26.9901 21.6655C26.8245 21.3914 26.4204 20.664 25.3097 18.6629C25.2123 18.4873 24.9909 18.4232 24.8146 18.5206C24.7279 18.5691 24.6582 18.6368 24.6073 18.7216C24.5044 18.8933 24.5004 19.1078 24.5977 19.282L25.5616 21.0188C25.6192 21.1225 25.6 21.2517 25.5149 21.334C25.4299 21.4165 25.3 21.431 25.198 21.3703L20.5607 18.5883C20.3421 18.4573 20.054 18.5086 19.9188 18.7037C19.8411 18.8159 19.8163 18.9497 19.8488 19.0804C19.8787 19.1998 19.9536 19.3005 20.0597 19.3641C20.06 19.3643 20.0602 19.3646 20.0605 19.3648L23.0926 21.1838C23.2166 21.2583 23.2568 21.419 23.1823 21.5431C23.1078 21.6669 22.9473 21.7074 22.823 21.6328L19.1005 19.3997C18.9949 19.3364 18.8706 19.3177 18.7512 19.3478C18.6315 19.3776 18.5308 19.4524 18.4673 19.5585C18.4037 19.6643 18.3854 19.7884 18.4149 19.9078C18.4447 20.0272 18.5197 20.128 18.6256 20.1917L19.35 20.6261L22.3479 22.4248C22.4719 22.4992 22.5121 22.6599 22.4376 22.7841C22.3632 22.9079 22.2026 22.9482 22.0783 22.8738L19.0456 21.0543C18.8275 20.9231 18.5434 20.9943 18.4123 21.2127C18.3486 21.3186 18.3303 21.4428 18.3598 21.5622C18.3896 21.6815 18.4646 21.7822 18.5707 21.846L19.3142 22.2921L21.6034 23.6655C21.7273 23.74 21.7675 23.9007 21.6931 24.0248C21.6186 24.1487 21.4581 24.1893 21.3338 24.1145L19.0446 22.7411C18.939 22.6778 18.8152 22.6591 18.6951 22.6891C18.5757 22.719 18.4747 22.7937 18.4113 22.8995C18.3478 23.0055 18.3293 23.1298 18.3588 23.249C18.3886 23.3684 18.4636 23.4691 18.5697 23.5329L23.2104 26.3168C23.9635 26.7686 24.8319 26.925 25.6549 26.7571C26.4692 26.5908 27.142 26.1255 27.549 25.4469C28.2068 24.3511 28.1121 23.1068 27.2963 22.1184L27.296 22.1184Z" fill="#FFAB02"/>
</svg>
