<svg width="127" height="24" viewBox="0 0 127 24" fill="none" xmlns="http://www.w3.org/2000/svg">
<path d="M17.0183 12.5243L12.3791 20.4698L7.73986 12.5243H17.0183ZM18.2612 11.8141H6.492L12.3791 21.8752L18.2612 11.8141Z" fill="white"/>
<path d="M25.0842 2.64194L29.7235 10.5875H20.445L25.0842 2.64194ZM25.0842 1.22168L19.1971 11.2827H30.9713L25.0842 1.22168Z" fill="white"/>
<path d="M0.851471 1.22168L5.7876 10.1207L11.1816 1.44514L0.851471 1.22168Z" fill="#044170"/>
<path d="M12.3792 2.00128L17.5568 10.8506H7.1915L12.3792 2.00128Z" fill="#044170"/>
<path d="M18.8902 12.7826L24.0729 21.8753H13.461L18.7292 12.7826H18.8902Z" fill="#044170"/>
<path d="M20.0123 12.2313L25.0842 21.1849L30.2266 12.2313H20.0123Z" fill="#044170"/>
<path d="M51.7987 7.59179H47.8143C47.7007 6.93838 47.4912 6.35954 47.1858 5.85528C46.8804 5.34392 46.5004 4.91068 46.0459 4.55556C45.5913 4.20045 45.0728 3.93411 44.4905 3.75656C43.9152 3.5719 43.2937 3.47957 42.6261 3.47957C41.44 3.47957 40.3889 3.77787 39.4727 4.37446C38.5565 4.96394 37.8392 5.83042 37.3207 6.97389C36.8022 8.11025 36.543 9.49875 36.543 11.1394C36.543 12.8084 36.8022 14.2147 37.3207 15.3581C37.8463 16.4945 38.5636 17.3539 39.4727 17.9362C40.3889 18.5115 41.4365 18.7992 42.6155 18.7992C43.2689 18.7992 43.8797 18.7139 44.4478 18.5435C45.0231 18.3659 45.538 18.1067 45.9926 17.7658C46.4542 17.4249 46.8413 17.0058 47.1538 16.5087C47.4734 16.0115 47.6936 15.4433 47.8143 14.8041L51.7987 14.8255C51.6496 15.8624 51.3264 16.8354 50.8292 17.7445C50.3392 18.6536 49.6964 19.4561 48.901 20.1522C48.1055 20.8411 47.1751 21.3808 46.1098 21.7715C45.0444 22.155 43.8619 22.3468 42.5622 22.3468C40.6446 22.3468 38.9329 21.9029 37.4272 21.0151C35.9216 20.1273 34.7355 18.8453 33.869 17.1692C33.0025 15.4931 32.5693 13.4831 32.5693 11.1394C32.5693 8.78852 33.0061 6.77858 33.8797 5.10954C34.7532 3.43341 35.9429 2.15144 37.4486 1.26366C38.9542 0.375876 40.6588 -0.0680162 42.5622 -0.0680162C43.7767 -0.0680162 44.9059 0.102438 45.95 0.443347C46.994 0.784257 47.9244 1.28497 48.7412 1.94548C49.5579 2.59889 50.2291 3.40144 50.7547 4.35315C51.2873 5.29775 51.6353 6.3773 51.7987 7.59179Z" fill="white"/>
<path d="M54.8612 10.5485V2.44874H59.9393V3.50076H56.0833V5.96864H59.6743V7.0167H56.0833V9.49645H59.9868V10.5485H54.8612ZM62.4102 4.47367L63.7509 6.83873L65.1035 4.47367H66.3967L64.5023 7.51107L66.4126 10.5485H65.1193L63.7509 8.27833L62.3864 10.5485H61.0892L62.9797 7.51107L61.1129 4.47367H62.4102ZM69.3679 10.6829C68.9829 10.6829 68.6349 10.6117 68.3238 10.4694C68.0127 10.3243 67.7661 10.1147 67.5842 9.84053C67.4049 9.56632 67.3153 9.23015 67.3153 8.83202C67.3153 8.48926 67.3812 8.20714 67.513 7.98566C67.6449 7.76418 67.8228 7.58885 68.0469 7.45965C68.2711 7.33046 68.5215 7.2329 68.7984 7.16699C69.0752 7.10107 69.3573 7.05098 69.6447 7.0167C70.0086 6.97451 70.3039 6.94024 70.5306 6.91387C70.7574 6.88487 70.9222 6.83873 71.025 6.77545C71.1278 6.71217 71.1793 6.60934 71.1793 6.46696V6.43928C71.1793 6.09388 71.0817 5.82626 70.8866 5.63643C70.6941 5.44659 70.4067 5.35167 70.0244 5.35167C69.6263 5.35167 69.3125 5.44 69.0831 5.61665C68.8564 5.79067 68.6995 5.98446 68.6125 6.19803L67.5012 5.94491C67.633 5.57578 67.8255 5.27784 68.0786 5.05109C68.3343 4.82171 68.6283 4.6556 68.9605 4.55277C69.2928 4.44731 69.6421 4.39457 70.0086 4.39457C70.2512 4.39457 70.5082 4.42358 70.7798 4.48158C71.054 4.53695 71.3098 4.63978 71.5471 4.79007C71.787 4.94036 71.9834 5.15524 72.1364 5.43472C72.2893 5.71157 72.3657 6.07147 72.3657 6.51442V10.5485H71.2109V9.71792H71.1634C71.087 9.87085 70.9723 10.0211 70.8194 10.1688C70.6664 10.3164 70.47 10.439 70.2301 10.5366C69.9901 10.6342 69.7027 10.6829 69.3679 10.6829ZM69.625 9.73374C69.9519 9.73374 70.2314 9.66915 70.4634 9.53995C70.6981 9.41076 70.876 9.24201 70.9973 9.03372C71.1213 8.82279 71.1832 8.59736 71.1832 8.35743V7.57435C71.141 7.61653 71.0593 7.65608 70.938 7.69299C70.8194 7.72727 70.6836 7.75759 70.5306 7.78396C70.3777 7.80769 70.2288 7.8301 70.0837 7.85119C69.9387 7.86965 69.8174 7.88547 69.7199 7.89865C69.4905 7.92765 69.2809 7.97643 69.091 8.04498C68.9038 8.11354 68.7536 8.21241 68.6402 8.34161C68.5294 8.46816 68.4741 8.63691 68.4741 8.84784C68.4741 9.1405 68.5822 9.36198 68.7984 9.51227C69.0146 9.65992 69.2901 9.73374 69.625 9.73374ZM73.9408 10.5485V4.47367H75.0759V5.46241H75.151C75.2776 5.12756 75.4845 4.86653 75.7719 4.67933C76.0593 4.48949 76.4034 4.39457 76.8042 4.39457C77.2102 4.39457 77.5503 4.48949 77.8245 4.67933C78.1014 4.86917 78.3057 5.13019 78.4376 5.46241H78.5008C78.6459 5.1381 78.8766 4.87971 79.193 4.68724C79.5093 4.49213 79.8864 4.39457 80.3241 4.39457C80.8751 4.39457 81.3247 4.56727 81.6727 4.91267C82.0234 5.25807 82.1987 5.7788 82.1987 6.47487V10.5485H81.0162V6.58561C81.0162 6.1743 80.9041 5.87636 80.68 5.6918C80.4559 5.50723 80.1883 5.41495 79.8772 5.41495C79.4922 5.41495 79.193 5.5336 78.9794 5.77089C78.7658 6.00555 78.659 6.30745 78.659 6.67658V10.5485H77.4805V6.51047C77.4805 6.18089 77.3776 5.91591 77.172 5.71552C76.9663 5.51514 76.6987 5.41495 76.3691 5.41495C76.145 5.41495 75.938 5.47427 75.7482 5.59292C75.561 5.70893 75.4094 5.87109 75.2934 6.07938C75.18 6.28767 75.1233 6.52892 75.1233 6.80313V10.5485H73.9408ZM86.4018 10.6711C85.8033 10.6711 85.2878 10.5432 84.8554 10.2874C84.4257 10.029 84.0935 9.66651 83.8588 9.19983C83.6268 8.73051 83.5108 8.18077 83.5108 7.55062C83.5108 6.92837 83.6268 6.37995 83.8588 5.90536C84.0935 5.43077 84.4204 5.06032 84.8396 4.79402C85.2615 4.52772 85.7545 4.39457 86.3188 4.39457C86.6615 4.39457 86.9937 4.45126 87.3154 4.56464C87.6371 4.67801 87.9258 4.85598 88.1815 5.09855C88.4373 5.34112 88.639 5.6562 88.7867 6.04378C88.9343 6.42873 89.0081 6.89673 89.0081 7.44779V7.86701H84.1791V6.98111H87.8493C87.8493 6.66998 87.7861 6.39446 87.6595 6.15452C87.5329 5.91195 87.355 5.7208 87.1256 5.58106C86.8988 5.44132 86.6325 5.37145 86.3267 5.37145C85.9945 5.37145 85.7044 5.45318 85.4566 5.61665C85.2114 5.77749 85.0215 5.98842 84.8871 6.24944C84.7552 6.50783 84.6893 6.78863 84.6893 7.09184V7.78396C84.6893 8.19 84.7605 8.5354 84.9029 8.82015C85.0479 9.10491 85.2496 9.32243 85.508 9.47272C85.7664 9.62037 86.0683 9.69419 86.4137 9.69419C86.6378 9.69419 86.8421 9.66256 87.0267 9.59928C87.2113 9.53336 87.3708 9.43581 87.5053 9.30661C87.6397 9.17742 87.7425 9.0179 87.8137 8.82806L88.933 9.02976C88.8433 9.35934 88.6825 9.64805 88.4505 9.8959C88.2211 10.1411 87.9324 10.3323 87.5843 10.4694C87.239 10.6038 86.8448 10.6711 86.4018 10.6711ZM91.5027 6.94156V10.5485H90.3202V4.47367H91.4552V5.46241H91.5304C91.6701 5.14074 91.889 4.88235 92.1869 4.68724C92.4875 4.49213 92.8658 4.39457 93.322 4.39457C93.7359 4.39457 94.0985 4.48158 94.4096 4.6556C94.7207 4.82698 94.962 5.08273 95.1333 5.42286C95.3047 5.76298 95.3904 6.18353 95.3904 6.68449V10.5485H94.2079V6.82686C94.2079 6.38655 94.0932 6.04247 93.8638 5.79462C93.6344 5.54414 93.3193 5.4189 92.9186 5.4189C92.6444 5.4189 92.4005 5.47823 92.1869 5.59688C91.976 5.71552 91.8086 5.88954 91.6846 6.11893C91.5634 6.34568 91.5027 6.61989 91.5027 6.94156ZM57.3251 21.6711C56.7556 21.6711 56.2586 21.5406 55.8341 21.2795C55.4096 21.0185 55.08 20.6533 54.8454 20.184C54.6107 19.7147 54.4934 19.1663 54.4934 18.5388C54.4934 17.9086 54.6107 17.3575 54.8454 16.8856C55.08 16.4136 55.4096 16.0471 55.8341 15.7861C56.2586 15.5251 56.7556 15.3946 57.3251 15.3946C57.8946 15.3946 58.3916 15.5251 58.8161 15.7861C59.2406 16.0471 59.5702 16.4136 59.8049 16.8856C60.0395 17.3575 60.1568 17.9086 60.1568 18.5388C60.1568 19.1663 60.0395 19.7147 59.8049 20.184C59.5702 20.6533 59.2406 21.0185 58.8161 21.2795C58.3916 21.5406 57.8946 21.6711 57.3251 21.6711ZM57.3291 20.6784C57.6982 20.6784 58.004 20.5808 58.2466 20.3857C58.4892 20.1906 58.6685 19.9309 58.7845 19.6066C58.9031 19.2823 58.9624 18.925 58.9624 18.5348C58.9624 18.1472 58.9031 17.7913 58.7845 17.467C58.6685 17.14 58.4892 16.8777 58.2466 16.6799C58.004 16.4822 57.6982 16.3833 57.3291 16.3833C56.9573 16.3833 56.6488 16.4822 56.4036 16.6799C56.161 16.8777 55.9804 17.14 55.8618 17.467C55.7458 17.7913 55.6878 18.1472 55.6878 18.5348C55.6878 18.925 55.7458 19.2823 55.8618 19.6066C55.9804 19.9309 56.161 20.1906 56.4036 20.3857C56.6488 20.5808 56.9573 20.6784 57.3291 20.6784ZM61.4768 21.5485V15.4737H62.6119V16.4624H62.687C62.8136 16.1276 63.0205 15.8665 63.3079 15.6793C63.5953 15.4895 63.9394 15.3946 64.3402 15.3946C64.7462 15.3946 65.0863 15.4895 65.3606 15.6793C65.6374 15.8692 65.8417 16.1302 65.9736 16.4624H66.0368C66.1819 16.1381 66.4126 15.8797 66.729 15.6872C67.0454 15.4921 67.4224 15.3946 67.8601 15.3946C68.4111 15.3946 68.8607 15.5673 69.2087 15.9127C69.5594 16.2581 69.7347 16.7788 69.7347 17.4749V21.5485H68.5522V17.5856C68.5522 17.1743 68.4401 16.8764 68.216 16.6918C67.9919 16.5072 67.7243 16.4149 67.4132 16.4149C67.0282 16.4149 66.729 16.5336 66.5154 16.7709C66.3018 17.0056 66.195 17.3074 66.195 17.6766V21.5485H65.0165V17.5105C65.0165 17.1809 64.9136 16.9159 64.708 16.7155C64.5023 16.5151 64.2347 16.4149 63.9051 16.4149C63.681 16.4149 63.474 16.4743 63.2842 16.5929C63.097 16.7089 62.9454 16.8711 62.8294 17.0794C62.716 17.2877 62.6593 17.5289 62.6593 17.8031V21.5485H61.4768ZM71.3197 23.8265V15.4737H72.4745V16.4585H72.5734C72.6419 16.3319 72.7408 16.1856 72.87 16.0195C72.9992 15.8533 73.1785 15.7083 73.4079 15.5844C73.6373 15.4579 73.9405 15.3946 74.3175 15.3946C74.8079 15.3946 75.2456 15.5185 75.6305 15.7663C76.0155 16.0142 76.3174 16.3714 76.5362 16.8381C76.7577 17.3048 76.8684 17.8664 76.8684 18.5229C76.8684 19.1795 76.759 19.7424 76.5402 20.2117C76.3213 20.6784 76.0208 21.0383 75.6385 21.2914C75.2561 21.5419 74.8198 21.6671 74.3294 21.6671C73.9602 21.6671 73.6583 21.6051 73.4237 21.4812C73.1917 21.3573 73.0097 21.2123 72.8779 21.0462C72.7461 20.8801 72.6446 20.7324 72.5734 20.6032H72.5022V23.8265H71.3197ZM72.4785 18.5111C72.4785 18.9382 72.5404 19.3126 72.6643 19.6343C72.7883 19.9559 72.9676 20.2077 73.2022 20.3897C73.4369 20.569 73.7243 20.6586 74.0644 20.6586C74.4177 20.6586 74.713 20.565 74.9503 20.3778C75.1876 20.188 75.3669 19.9309 75.4882 19.6066C75.6121 19.2823 75.674 18.9171 75.674 18.5111C75.674 18.1103 75.6134 17.7504 75.4921 17.4314C75.3735 17.1123 75.1942 16.8605 74.9542 16.676C74.717 16.4914 74.4203 16.3991 74.0644 16.3991C73.7216 16.3991 73.4316 16.4875 73.1943 16.6641C72.9596 16.8408 72.7817 17.0873 72.6604 17.4037C72.5391 17.7201 72.4785 18.0892 72.4785 18.5111ZM79.3759 13.4487V21.5485H78.1933V13.4487H79.3759ZM83.5849 21.6711C82.9864 21.6711 82.4709 21.5432 82.0385 21.2874C81.6088 21.029 81.2765 20.6665 81.0419 20.1998C80.8099 19.7305 80.6939 19.1808 80.6939 18.5506C80.6939 17.9284 80.8099 17.38 81.0419 16.9054C81.2765 16.4308 81.6035 16.0603 82.0227 15.794C82.4446 15.5277 82.9376 15.3946 83.5019 15.3946C83.8446 15.3946 84.1768 15.4513 84.4985 15.5646C84.8202 15.678 85.1089 15.856 85.3646 16.0986C85.6204 16.3411 85.8221 16.6562 85.9697 17.0438C86.1174 17.4287 86.1912 17.8967 86.1912 18.4478V18.867H81.3622V17.9811H85.0324C85.0324 17.67 84.9691 17.3945 84.8426 17.1545C84.716 16.912 84.5381 16.7208 84.3087 16.5811C84.0819 16.4413 83.8156 16.3714 83.5098 16.3714C83.1776 16.3714 82.8875 16.4532 82.6397 16.6167C82.3945 16.7775 82.2046 16.9884 82.0702 17.2494C81.9383 17.5078 81.8724 17.7886 81.8724 18.0918V18.784C81.8724 19.19 81.9436 19.5354 82.086 19.8202C82.231 20.1049 82.4327 20.3224 82.6911 20.4727C82.9495 20.6204 83.2514 20.6942 83.5968 20.6942C83.8209 20.6942 84.0252 20.6626 84.2098 20.5993C84.3944 20.5334 84.5539 20.4358 84.6883 20.3066C84.8228 20.1774 84.9256 20.0179 84.9968 19.8281L86.1161 20.0298C86.0264 20.3593 85.8656 20.6481 85.6336 20.8959C85.4042 21.1411 85.1155 21.3323 84.7674 21.4694C84.422 21.6038 84.0279 21.6711 83.5849 21.6711ZM88.2952 15.4737L89.636 17.8387L90.9886 15.4737H92.2818L90.3874 18.5111L92.2976 21.5485H91.0044L89.636 19.2783L88.2715 21.5485H86.9743L88.8648 18.5111L86.998 15.4737H88.2952ZM93.496 21.5485V15.4737H94.6785V21.5485H93.496ZM94.0932 14.5364C93.8875 14.5364 93.7109 14.4678 93.5632 14.3307C93.4182 14.191 93.3457 14.0248 93.3457 13.8324C93.3457 13.6373 93.4182 13.4712 93.5632 13.3341C93.7109 13.1943 93.8875 13.1244 94.0932 13.1244C94.2988 13.1244 94.4742 13.1943 94.6192 13.3341C94.7669 13.4712 94.8407 13.6373 94.8407 13.8324C94.8407 14.0248 94.7669 14.191 94.6192 14.3307C94.4742 14.4678 94.2988 14.5364 94.0932 14.5364ZM101.466 15.4737L99.2633 21.5485H97.9977L95.7909 15.4737H97.0604L98.5989 20.1484H98.6621L100.197 15.4737H101.466ZM104.93 21.6711C104.36 21.6711 103.863 21.5406 103.439 21.2795C103.014 21.0185 102.685 20.6533 102.45 20.184C102.215 19.7147 102.098 19.1663 102.098 18.5388C102.098 17.9086 102.215 17.3575 102.45 16.8856C102.685 16.4136 103.014 16.0471 103.439 15.7861C103.863 15.5251 104.36 15.3946 104.93 15.3946C105.499 15.3946 105.996 15.5251 106.421 15.7861C106.845 16.0471 107.175 16.4136 107.409 16.8856C107.644 17.3575 107.761 17.9086 107.761 18.5388C107.761 19.1663 107.644 19.7147 107.409 20.184C107.175 20.6533 106.845 21.0185 106.421 21.2795C105.996 21.5406 105.499 21.6711 104.93 21.6711ZM104.934 20.6784C105.303 20.6784 105.609 20.5808 105.851 20.3857C106.094 20.1906 106.273 19.9309 106.389 19.6066C106.508 19.2823 106.567 18.925 106.567 18.5348C106.567 18.1472 106.508 17.7913 106.389 17.467C106.273 17.14 106.094 16.8777 105.851 16.6799C105.609 16.4822 105.303 16.3833 104.934 16.3833C104.562 16.3833 104.253 16.4822 104.008 16.6799C103.766 16.8777 103.585 17.14 103.466 17.467C103.35 17.7913 103.292 18.1472 103.292 18.5348C103.292 18.925 103.35 19.2823 103.466 19.6066C103.585 19.9309 103.766 20.1906 104.008 20.3857C104.253 20.5808 104.562 20.6784 104.934 20.6784Z" fill="white"/>
</svg>
