<svg width="109" height="25" viewBox="0 0 109 25" fill="none" xmlns="http://www.w3.org/2000/svg">
<path d="M13.3106 13.1715L9.55812 19.5982L5.80569 13.1715H13.3106ZM14.3159 12.597H4.79636L9.55812 20.7349L14.3159 12.597Z" fill="#263238"/>
<path d="M19.8347 5.17808L23.5871 11.6048H16.0822L19.8347 5.17808ZM19.8347 4.0293L15.0729 12.1672H24.5964L19.8347 4.0293Z" fill="#263238"/>
<path d="M0.234009 4.0293L4.2266 11.2273L8.58952 4.21004L0.234009 4.0293Z" fill="#044170"/>
<path d="M9.55822 4.65991L13.7462 11.8177H5.36215L9.55822 4.65991Z" fill="#044170"/>
<path d="M14.8247 13.3804L19.0167 20.735H10.4332L14.6944 13.3804H14.8247Z" fill="#044170"/>
<path d="M15.7322 12.9344L19.8347 20.1766L23.9941 12.9344H15.7322Z" fill="#044170"/>
<path d="M48.4239 8.4254H44.4395C44.3258 7.77199 44.1163 7.19316 43.8109 6.6889C43.5055 6.17753 43.1256 5.7443 42.671 5.38918C42.2165 5.03407 41.698 4.76773 41.1156 4.59018C40.5403 4.40552 39.9189 4.31319 39.2513 4.31319C38.0652 4.31319 37.014 4.61148 36.0979 5.20807C35.1817 5.79756 34.4643 6.66404 33.9459 7.80751C33.4274 8.94387 33.1682 10.3324 33.1682 11.973C33.1682 13.642 33.4274 15.0483 33.9459 16.1917C34.4714 17.3281 35.1888 18.1875 36.0979 18.7699C37.014 19.3451 38.0616 19.6328 39.2406 19.6328C39.894 19.6328 40.5048 19.5476 41.073 19.3771C41.6483 19.1996 42.1632 18.9403 42.6177 18.5994C43.0794 18.2585 43.4665 17.8395 43.779 17.3423C44.0986 16.8451 44.3187 16.277 44.4395 15.6378L48.4239 15.6591C48.2747 16.696 47.9515 17.669 47.4544 18.5781C46.9643 19.4872 46.3216 20.2898 45.5261 20.9858C44.7307 21.6747 43.8003 22.2145 42.7349 22.6051C41.6696 22.9886 40.4871 23.1804 39.1873 23.1804C37.2697 23.1804 35.5581 22.7365 34.0524 21.8487C32.5467 20.9609 31.3606 19.679 30.4942 18.0028C29.6277 16.3267 29.1944 14.3167 29.1944 11.973C29.1944 9.62214 29.6312 7.61219 30.5048 5.94316C31.3784 4.26702 32.568 2.98506 34.0737 2.09728C35.5794 1.20949 37.2839 0.765602 39.1873 0.765602C40.4018 0.765602 41.5311 0.936056 42.5751 1.27697C43.6192 1.61788 44.5496 2.11859 45.3663 2.7791C46.1831 3.43251 46.8542 4.23506 47.3798 5.18677C47.9125 6.13137 48.2605 7.21092 48.4239 8.4254Z" fill="black"/>
<path d="M54.4863 11.3821V3.28236H59.5644V4.33438H55.7084V6.80226H59.2995V7.85032H55.7084V10.3301H59.6119V11.3821H54.4863ZM62.0353 5.30729L63.376 7.67235L64.7286 5.30729H66.0219L64.1275 8.34469L66.0377 11.3821H64.7444L63.376 9.11194L62.0116 11.3821H60.7143L62.6048 8.34469L60.7381 5.30729H62.0353ZM68.993 11.5165C68.6081 11.5165 68.26 11.4454 67.9489 11.303C67.6378 11.158 67.3913 10.9484 67.2093 10.6741C67.03 10.3999 66.9404 10.0638 66.9404 9.66564C66.9404 9.32287 67.0063 9.04076 67.1382 8.81928C67.27 8.5978 67.448 8.42247 67.6721 8.29327C67.8962 8.16408 68.1467 8.06652 68.4235 8.00061C68.7004 7.93469 68.9825 7.88459 69.2699 7.85032C69.6337 7.80813 69.929 7.77386 70.1558 7.74749C70.3825 7.71849 70.5473 7.67235 70.6501 7.60907C70.753 7.54579 70.8044 7.44296 70.8044 7.30058V7.2729C70.8044 6.9275 70.7068 6.65988 70.5117 6.47004C70.3192 6.28021 70.0318 6.18529 69.6495 6.18529C69.2514 6.18529 68.9376 6.27362 68.7083 6.45027C68.4815 6.62429 68.3246 6.81808 68.2376 7.03165L67.1263 6.77853C67.2581 6.4094 67.4506 6.11146 67.7037 5.88471C67.9595 5.65533 68.2534 5.48922 68.5857 5.38639C68.9179 5.28093 69.2672 5.22819 69.6337 5.22819C69.8763 5.22819 70.1334 5.2572 70.4049 5.3152C70.6791 5.37057 70.9349 5.4734 71.1722 5.62369C71.4121 5.77397 71.6086 5.98886 71.7615 6.26834C71.9144 6.54519 71.9909 6.90509 71.9909 7.34804V11.3821H70.836V10.5515H70.7886C70.7121 10.7045 70.5974 10.8548 70.4445 11.0024C70.2916 11.1501 70.0951 11.2727 69.8552 11.3702C69.6153 11.4678 69.3279 11.5165 68.993 11.5165ZM69.2501 10.5674C69.577 10.5674 69.8565 10.5028 70.0885 10.3736C70.3232 10.2444 70.5012 10.0756 70.6225 9.86734C70.7464 9.65641 70.8083 9.43098 70.8083 9.19104V8.40796C70.7661 8.45015 70.6844 8.4897 70.5631 8.52661C70.4445 8.56089 70.3087 8.59121 70.1558 8.61758C70.0028 8.64131 69.8539 8.66372 69.7089 8.68481C69.5638 8.70327 69.4426 8.71909 69.345 8.73227C69.1156 8.76127 68.906 8.81005 68.7162 8.8786C68.529 8.94716 68.3787 9.04603 68.2653 9.17522C68.1546 9.30178 68.0992 9.47053 68.0992 9.68146C68.0992 9.97412 68.2073 10.1956 68.4235 10.3459C68.6397 10.4935 68.9152 10.5674 69.2501 10.5674ZM73.5659 11.3821V5.30729H74.701V6.29603H74.7761C74.9027 5.96118 75.1097 5.70015 75.3971 5.51295C75.6844 5.32311 76.0285 5.22819 76.4293 5.22819C76.8353 5.22819 77.1755 5.32311 77.4497 5.51295C77.7265 5.70279 77.9309 5.96381 78.0627 6.29603H78.126C78.271 5.97172 78.5017 5.71333 78.8181 5.52086C79.1345 5.32575 79.5115 5.22819 79.9492 5.22819C80.5002 5.22819 80.9498 5.40089 81.2978 5.74629C81.6485 6.09169 81.8238 6.61242 81.8238 7.30849V11.3821H80.6413V7.41923C80.6413 7.00792 80.5292 6.70998 80.3051 6.52541C80.081 6.34085 79.8134 6.24857 79.5023 6.24857C79.1173 6.24857 78.8181 6.36722 78.6045 6.60451C78.3909 6.83917 78.2842 7.14107 78.2842 7.51019V11.3821H77.1056V7.34409C77.1056 7.01451 77.0028 6.74953 76.7971 6.54914C76.5914 6.34876 76.3238 6.24857 75.9942 6.24857C75.7701 6.24857 75.5632 6.30789 75.3733 6.42654C75.1861 6.54255 75.0345 6.7047 74.9185 6.913C74.8051 7.12129 74.7484 7.36254 74.7484 7.63675V11.3821H73.5659ZM86.0269 11.5047C85.4284 11.5047 84.913 11.3768 84.4806 11.1211C84.0508 10.8627 83.7186 10.5001 83.4839 10.0334C83.2519 9.56413 83.1359 9.01439 83.1359 8.38424C83.1359 7.76199 83.2519 7.21357 83.4839 6.73898C83.7186 6.26439 84.0455 5.89394 84.4647 5.62764C84.8866 5.36134 85.3797 5.22819 85.9439 5.22819C86.2867 5.22819 86.6189 5.28488 86.9405 5.39826C87.2622 5.51163 87.5509 5.6896 87.8067 5.93217C88.0624 6.17474 88.2641 6.48982 88.4118 6.8774C88.5594 7.26235 88.6333 7.73035 88.6333 8.28141V8.70063H83.8043V7.81472H87.4745C87.4745 7.5036 87.4112 7.22807 87.2846 6.98814C87.1581 6.74557 86.9801 6.55442 86.7507 6.41467C86.5239 6.27493 86.2576 6.20506 85.9518 6.20506C85.6196 6.20506 85.3296 6.2868 85.0817 6.45027C84.8365 6.6111 84.6467 6.82203 84.5122 7.08306C84.3804 7.34145 84.3145 7.62225 84.3145 7.92546V8.61758C84.3145 9.02362 84.3856 9.36902 84.528 9.65377C84.673 9.93853 84.8747 10.156 85.1331 10.3063C85.3915 10.454 85.6934 10.5278 86.0388 10.5278C86.2629 10.5278 86.4673 10.4962 86.6518 10.4329C86.8364 10.367 86.9959 10.2694 87.1304 10.1402C87.2648 10.011 87.3677 9.85152 87.4389 9.66168L88.5581 9.86338C88.4685 10.193 88.3076 10.4817 88.0756 10.7295C87.8462 10.9747 87.5575 11.1659 87.2095 11.303C86.8641 11.4374 86.4699 11.5047 86.0269 11.5047ZM91.1278 7.77517V11.3821H89.9453V5.30729H91.0804V6.29603H91.1555C91.2953 5.97436 91.5141 5.71597 91.812 5.52086C92.1126 5.32575 92.491 5.22819 92.9471 5.22819C93.3611 5.22819 93.7236 5.3152 94.0347 5.48922C94.3458 5.6606 94.5871 5.91635 94.7585 6.25648C94.9298 6.5966 95.0155 7.01714 95.0155 7.5181V11.3821H93.833V7.66048C93.833 7.22016 93.7183 6.87608 93.4889 6.62824C93.2595 6.37776 92.9445 6.25252 92.5437 6.25252C92.2695 6.25252 92.0256 6.31185 91.812 6.43049C91.6011 6.54914 91.4337 6.72316 91.3098 6.95255C91.1885 7.1793 91.1278 7.45351 91.1278 7.77517ZM56.9502 22.5047C56.3807 22.5047 55.8837 22.3742 55.4592 22.1131C55.0347 21.8521 54.7051 21.4869 54.4705 21.0176C54.2358 20.5483 54.1185 19.9999 54.1185 19.3724C54.1185 18.7422 54.2358 18.1912 54.4705 17.7192C54.7051 17.2472 55.0347 16.8808 55.4592 16.6197C55.8837 16.3587 56.3807 16.2282 56.9502 16.2282C57.5197 16.2282 58.0167 16.3587 58.4412 16.6197C58.8657 16.8808 59.1953 17.2472 59.43 17.7192C59.6646 18.1912 59.782 18.7422 59.782 19.3724C59.782 19.9999 59.6646 20.5483 59.43 21.0176C59.1953 21.4869 58.8657 21.8521 58.4412 22.1131C58.0167 22.3742 57.5197 22.5047 56.9502 22.5047ZM56.9542 21.512C57.3233 21.512 57.6292 21.4144 57.8717 21.2193C58.1143 21.0242 58.2936 20.7645 58.4096 20.4402C58.5282 20.1159 58.5876 19.7586 58.5876 19.3684C58.5876 18.9808 58.5282 18.6249 58.4096 18.3006C58.2936 17.9736 58.1143 17.7113 57.8717 17.5135C57.6292 17.3158 57.3233 17.2169 56.9542 17.2169C56.5824 17.2169 56.2739 17.3158 56.0287 17.5135C55.7862 17.7113 55.6055 17.9736 55.4869 18.3006C55.3709 18.6249 55.3129 18.9808 55.3129 19.3684C55.3129 19.7586 55.3709 20.1159 55.4869 20.4402C55.6055 20.7645 55.7862 21.0242 56.0287 21.2193C56.2739 21.4144 56.5824 21.512 56.9542 21.512ZM61.1019 22.3821V16.3073H62.237V17.296H62.3121C62.4387 16.9612 62.6457 16.7001 62.9331 16.5129C63.2205 16.3231 63.5645 16.2282 63.9653 16.2282C64.3713 16.2282 64.7115 16.3231 64.9857 16.5129C65.2625 16.7028 65.4669 16.9638 65.5987 17.296H65.662C65.807 16.9717 66.0377 16.7133 66.3541 16.5209C66.6705 16.3257 67.0475 16.2282 67.4852 16.2282C68.0363 16.2282 68.4858 16.4009 68.8338 16.7463C69.1845 17.0917 69.3598 17.6124 69.3598 18.3085V22.3821H68.1773V18.4192C68.1773 18.0079 68.0653 17.71 67.8411 17.5254C67.617 17.3408 67.3494 17.2486 67.0383 17.2486C66.6533 17.2486 66.3541 17.3672 66.1405 17.6045C65.927 17.8392 65.8202 18.1411 65.8202 18.5102V22.3821H64.6416V18.3441C64.6416 18.0145 64.5388 17.7495 64.3331 17.5491C64.1275 17.3488 63.8598 17.2486 63.5303 17.2486C63.3061 17.2486 63.0992 17.3079 62.9093 17.4265C62.7221 17.5426 62.5705 17.7047 62.4545 17.913C62.3411 18.1213 62.2845 18.3625 62.2845 18.6368V22.3821H61.1019ZM70.9448 24.6601V16.3073H72.0996V17.2921H72.1985C72.267 17.1655 72.3659 17.0192 72.4951 16.8531C72.6243 16.687 72.8036 16.542 73.033 16.418C73.2624 16.2915 73.5656 16.2282 73.9426 16.2282C74.433 16.2282 74.8707 16.3521 75.2557 16.6C75.6406 16.8478 75.9425 17.2051 76.1613 17.6717C76.3828 18.1384 76.4936 18.7 76.4936 19.3566C76.4936 20.0131 76.3841 20.576 76.1653 21.0453C75.9465 21.512 75.6459 21.8719 75.2636 22.125C74.8813 22.3755 74.4449 22.5007 73.9545 22.5007C73.5854 22.5007 73.2835 22.4388 73.0488 22.3148C72.8168 22.1909 72.6349 22.0459 72.503 21.8798C72.3712 21.7137 72.2697 21.566 72.1985 21.4368H72.1273V24.6601H70.9448ZM72.1036 19.3447C72.1036 19.7718 72.1655 20.1462 72.2895 20.4679C72.4134 20.7896 72.5927 21.0414 72.8273 21.2233C73.062 21.4026 73.3494 21.4922 73.6895 21.4922C74.0428 21.4922 74.3381 21.3986 74.5754 21.2114C74.8127 21.0216 74.992 20.7645 75.1133 20.4402C75.2372 20.1159 75.2992 19.7507 75.2992 19.3447C75.2992 18.9439 75.2385 18.584 75.1172 18.265C74.9986 17.946 74.8193 17.6942 74.5794 17.5096C74.3421 17.325 74.0455 17.2327 73.6895 17.2327C73.3467 17.2327 73.0567 17.3211 72.8194 17.4977C72.5848 17.6744 72.4068 17.9209 72.2855 18.2373C72.1642 18.5537 72.1036 18.9228 72.1036 19.3447ZM79.001 14.2824V22.3821H77.8185V14.2824H79.001ZM83.21 22.5047C82.6115 22.5047 82.0961 22.3768 81.6637 22.1211C81.2339 21.8627 80.9017 21.5001 80.667 21.0334C80.435 20.5641 80.319 20.0144 80.319 19.3842C80.319 18.762 80.435 18.2136 80.667 17.739C80.9017 17.2644 81.2286 16.8939 81.6478 16.6276C82.0697 16.3613 82.5627 16.2282 83.127 16.2282C83.4697 16.2282 83.802 16.2849 84.1236 16.3983C84.4453 16.5116 84.734 16.6896 84.9898 16.9322C85.2455 17.1747 85.4472 17.4898 85.5949 17.8774C85.7425 18.2624 85.8163 18.7304 85.8163 19.2814V19.7006H80.9874V18.8147H84.6575C84.6575 18.5036 84.5943 18.2281 84.4677 17.9881C84.3412 17.7456 84.1632 17.5544 83.9338 17.4147C83.707 17.2749 83.4407 17.2051 83.1349 17.2051C82.8027 17.2051 82.5127 17.2868 82.2648 17.4503C82.0196 17.6111 81.8298 17.822 81.6953 18.0831C81.5635 18.3414 81.4975 18.6223 81.4975 18.9255V19.6176C81.4975 20.0236 81.5687 20.369 81.7111 20.6538C81.8561 20.9385 82.0578 21.156 82.3162 21.3063C82.5746 21.454 82.8765 21.5278 83.2219 21.5278C83.446 21.5278 83.6504 21.4962 83.8349 21.4329C84.0195 21.367 84.179 21.2694 84.3135 21.1402C84.4479 21.011 84.5508 20.8515 84.622 20.6617L85.7412 20.8634C85.6516 21.193 85.4907 21.4817 85.2587 21.7295C85.0293 21.9747 84.7406 22.1659 84.3926 22.303C84.0472 22.4374 83.653 22.5047 83.21 22.5047ZM87.9204 16.3073L89.2611 18.6723L90.6137 16.3073H91.907L90.0125 19.3447L91.9228 22.3821H90.6295L89.2611 20.1119L87.8966 22.3821H86.5994L88.4899 19.3447L86.6232 16.3073H87.9204ZM93.1211 22.3821V16.3073H94.3036V22.3821H93.1211ZM93.7183 15.37C93.5127 15.37 93.336 15.3014 93.1884 15.1643C93.0433 15.0246 92.9708 14.8585 92.9708 14.666C92.9708 14.4709 93.0433 14.3048 93.1884 14.1677C93.336 14.0279 93.5127 13.9581 93.7183 13.9581C93.924 13.9581 94.0993 14.0279 94.2443 14.1677C94.392 14.3048 94.4658 14.4709 94.4658 14.666C94.4658 14.8585 94.392 15.0246 94.2443 15.1643C94.0993 15.3014 93.924 15.37 93.7183 15.37ZM101.091 16.3073L98.8884 22.3821H97.6228L95.416 16.3073H96.6855L98.224 20.982H98.2873L99.8218 16.3073H101.091ZM104.555 22.5047C103.985 22.5047 103.488 22.3742 103.064 22.1131C102.639 21.8521 102.31 21.4869 102.075 21.0176C101.84 20.5483 101.723 19.9999 101.723 19.3724C101.723 18.7422 101.84 18.1912 102.075 17.7192C102.31 17.2472 102.639 16.8808 103.064 16.6197C103.488 16.3587 103.985 16.2282 104.555 16.2282C105.124 16.2282 105.621 16.3587 106.046 16.6197C106.47 16.8808 106.8 17.2472 107.035 17.7192C107.269 18.1912 107.387 18.7422 107.387 19.3724C107.387 19.9999 107.269 20.5483 107.035 21.0176C106.8 21.4869 106.47 21.8521 106.046 22.1131C105.621 22.3742 105.124 22.5047 104.555 22.5047ZM104.559 21.512C104.928 21.512 105.234 21.4144 105.476 21.2193C105.719 21.0242 105.898 20.7645 106.014 20.4402C106.133 20.1159 106.192 19.7586 106.192 19.3684C106.192 18.9808 106.133 18.6249 106.014 18.3006C105.898 17.9736 105.719 17.7113 105.476 17.5135C105.234 17.3158 104.928 17.2169 104.559 17.2169C104.187 17.2169 103.879 17.3158 103.633 17.5135C103.391 17.7113 103.21 17.9736 103.092 18.3006C102.976 18.6249 102.918 18.9808 102.918 19.3684C102.918 19.7586 102.976 20.1159 103.092 20.4402C103.21 20.7645 103.391 21.0242 103.633 21.2193C103.879 21.4144 104.187 21.512 104.559 21.512Z" fill="black"/>
</svg>
