<svg width="23" height="22" viewBox="0 0 23 22" fill="none" xmlns="http://www.w3.org/2000/svg">
<mask id="path-1-inside-1_1_1289" fill="white">
<path d="M14.3151 10.8011C14.1475 10.8011 13.9919 10.755 13.8536 10.6809V10.6829C13.8536 10.9466 13.7512 11.1942 13.5652 11.3797C13.3792 11.5657 13.1318 11.6682 12.8684 11.6682C12.6983 11.6682 12.5407 11.6209 12.401 11.5448C12.3869 11.7861 12.2905 12.0116 12.1184 12.1838C11.9325 12.3697 11.685 12.4722 11.4214 12.4722C10.8978 12.4722 10.4726 12.0606 10.4419 11.5447C10.2799 11.6322 10.0967 11.6782 9.90777 11.666C9.39265 11.6322 8.98925 11.1872 8.98925 10.6525V6.22091L8.48462 7.09515C8.29242 7.42953 7.93264 7.63714 7.54527 7.63714C7.35652 7.63714 7.17006 7.58761 7.00492 7.49299C6.79928 7.37377 6.65217 7.18239 6.591 6.95343C6.52951 6.72434 6.56132 6.48474 6.68021 6.27941C6.68038 6.27941 8.33128 3.42051 8.432 3.2449C8.44397 3.2185 8.47808 3.14192 8.50711 3.07665C8.53483 3.01433 8.55861 2.95037 8.5814 2.88609C9.07926 1.48053 10.312 0.607426 11.7988 0.607426C13.7295 0.607426 15.3002 2.31064 15.3002 4.4042L15.3003 9.81569C15.3003 10.0791 15.198 10.3265 15.0122 10.5127C14.8262 10.6986 14.5788 10.8011 14.3151 10.8011L14.3151 10.8011ZM11.7988 1.13097C10.5213 1.13097 9.50305 1.85256 9.07487 3.06118C9.04749 3.13793 9.01895 3.21467 8.98566 3.28946C8.88907 3.50609 8.88907 3.50609 8.86185 3.53725L8.85824 3.53413C8.72344 3.78848 8.32297 4.482 7.13353 6.54143C7.08466 6.62589 7.0717 6.72396 7.09663 6.81776C7.12189 6.91156 7.1824 6.99061 7.2662 7.03898C7.52629 7.18838 7.8825 7.09195 8.03074 6.83367L9.02437 5.11337C9.08374 5.01087 9.20378 4.96053 9.3189 4.99169C9.43337 5.02235 9.5129 5.12616 9.5129 5.24456V10.6527C9.5129 10.9079 9.70543 11.1281 9.94209 11.1437C10.0785 11.1509 10.2058 11.1051 10.3014 11.0097C10.3883 10.9228 10.4362 10.807 10.4362 10.6832V7.14619C10.4362 7.00155 10.5534 6.8843 10.6981 6.8843C10.8427 6.8843 10.96 7.00139 10.96 7.14619L10.9598 11.4871C10.9598 11.7417 11.1669 11.9488 11.4215 11.9488C11.5451 11.9488 11.6612 11.9009 11.7483 11.814C11.8352 11.7269 11.8831 11.6108 11.8831 11.4871V7.14619C11.8831 7.00155 12.0002 6.88429 12.145 6.88429C12.2896 6.88429 12.4069 7.00139 12.4069 7.14619L12.4067 10.6425V10.6832C12.4067 10.9375 12.6139 11.1446 12.8685 11.1446C12.992 11.1446 13.1078 11.0966 13.1954 11.0093C13.2823 10.9226 13.3302 10.8068 13.3302 10.683V7.14601C13.3302 7.00137 13.4473 6.88411 13.5921 6.88411C13.7367 6.88411 13.854 7.0012 13.854 7.14601L13.8536 9.81581C13.8536 10.0705 14.0608 10.2776 14.3151 10.2776C14.4389 10.2776 14.5547 10.2296 14.6416 10.1428C14.7289 10.0556 14.7766 9.93946 14.7766 9.81581L14.7767 4.40433C14.7767 2.5996 13.4409 1.13102 11.7988 1.13102L11.7988 1.13097Z"/>
</mask>
<path d="M14.3151 10.8011C14.1475 10.8011 13.9919 10.755 13.8536 10.6809V10.6829C13.8536 10.9466 13.7512 11.1942 13.5652 11.3797C13.3792 11.5657 13.1318 11.6682 12.8684 11.6682C12.6983 11.6682 12.5407 11.6209 12.401 11.5448C12.3869 11.7861 12.2905 12.0116 12.1184 12.1838C11.9325 12.3697 11.685 12.4722 11.4214 12.4722C10.8978 12.4722 10.4726 12.0606 10.4419 11.5447C10.2799 11.6322 10.0967 11.6782 9.90777 11.666C9.39265 11.6322 8.98925 11.1872 8.98925 10.6525V6.22091L8.48462 7.09515C8.29242 7.42953 7.93264 7.63714 7.54527 7.63714C7.35652 7.63714 7.17006 7.58761 7.00492 7.49299C6.79928 7.37377 6.65217 7.18239 6.591 6.95343C6.52951 6.72434 6.56132 6.48474 6.68021 6.27941C6.68038 6.27941 8.33128 3.42051 8.432 3.2449C8.44397 3.2185 8.47808 3.14192 8.50711 3.07665C8.53483 3.01433 8.55861 2.95037 8.5814 2.88609C9.07926 1.48053 10.312 0.607426 11.7988 0.607426C13.7295 0.607426 15.3002 2.31064 15.3002 4.4042L15.3003 9.81569C15.3003 10.0791 15.198 10.3265 15.0122 10.5127C14.8262 10.6986 14.5788 10.8011 14.3151 10.8011L14.3151 10.8011ZM11.7988 1.13097C10.5213 1.13097 9.50305 1.85256 9.07487 3.06118C9.04749 3.13793 9.01895 3.21467 8.98566 3.28946C8.88907 3.50609 8.88907 3.50609 8.86185 3.53725L8.85824 3.53413C8.72344 3.78848 8.32297 4.482 7.13353 6.54143C7.08466 6.62589 7.0717 6.72396 7.09663 6.81776C7.12189 6.91156 7.1824 6.99061 7.2662 7.03898C7.52629 7.18838 7.8825 7.09195 8.03074 6.83367L9.02437 5.11337C9.08374 5.01087 9.20378 4.96053 9.3189 4.99169C9.43337 5.02235 9.5129 5.12616 9.5129 5.24456V10.6527C9.5129 10.9079 9.70543 11.1281 9.94209 11.1437C10.0785 11.1509 10.2058 11.1051 10.3014 11.0097C10.3883 10.9228 10.4362 10.807 10.4362 10.6832V7.14619C10.4362 7.00155 10.5534 6.8843 10.6981 6.8843C10.8427 6.8843 10.96 7.00139 10.96 7.14619L10.9598 11.4871C10.9598 11.7417 11.1669 11.9488 11.4215 11.9488C11.5451 11.9488 11.6612 11.9009 11.7483 11.814C11.8352 11.7269 11.8831 11.6108 11.8831 11.4871V7.14619C11.8831 7.00155 12.0002 6.88429 12.145 6.88429C12.2896 6.88429 12.4069 7.00139 12.4069 7.14619L12.4067 10.6425V10.6832C12.4067 10.9375 12.6139 11.1446 12.8685 11.1446C12.992 11.1446 13.1078 11.0966 13.1954 11.0093C13.2823 10.9226 13.3302 10.8068 13.3302 10.683V7.14601C13.3302 7.00137 13.4473 6.88411 13.5921 6.88411C13.7367 6.88411 13.854 7.0012 13.854 7.14601L13.8536 9.81581C13.8536 10.0705 14.0608 10.2776 14.3151 10.2776C14.4389 10.2776 14.5547 10.2296 14.6416 10.1428C14.7289 10.0556 14.7766 9.93946 14.7766 9.81581L14.7767 4.40433C14.7767 2.5996 13.4409 1.13102 11.7988 1.13102L11.7988 1.13097Z" fill="#044170"/>
<path d="M14.3151 10.8011V9.87303H17.5941L14.8015 11.5915L14.3151 10.8011ZM13.8536 10.6809H12.9256V9.13018L14.2922 9.86298L13.8536 10.6809ZM13.5652 11.3797L12.9089 10.7234L12.9098 10.7226L13.5652 11.3797ZM12.401 11.5448L11.4745 11.4907L11.5599 10.03L12.8448 10.7298L12.401 11.5448ZM12.1184 12.1838L12.775 12.8397L12.7747 12.84L12.1184 12.1838ZM10.4419 11.5447L10.0006 10.7282L11.282 10.0357L11.3684 11.4896L10.4419 11.5447ZM9.90777 11.666L9.84827 12.5922L9.84704 12.5921L9.90777 11.666ZM8.98925 6.22091L8.18545 5.75695L9.91734 2.75654V6.22091H8.98925ZM8.48462 7.09515L7.67998 6.63265L7.68082 6.63118L8.48462 7.09515ZM7.00492 7.49299L6.5435 8.29826L6.53944 8.29591L7.00492 7.49299ZM6.591 6.95343L7.48736 6.71283L7.48764 6.71387L6.591 6.95343ZM6.68021 6.27941L5.87705 5.81435L6.14516 5.35132H6.68021V6.27941ZM8.432 3.2449L9.27726 3.62816L9.25904 3.66835L9.23709 3.70663L8.432 3.2449ZM8.50711 3.07665L7.65909 2.69952L7.6591 2.69951L8.50711 3.07665ZM8.5814 2.88609L9.45623 3.19596L9.45614 3.19622L8.5814 2.88609ZM15.3002 4.4042L14.3721 4.40423V4.4042H15.3002ZM15.3003 9.81569L16.2284 9.81566V9.81569H15.3003ZM15.0122 10.5127L15.6691 11.1683L15.6685 11.1689L15.0122 10.5127ZM14.3151 10.8011V11.7292H11.0361L13.8287 10.0107L14.3151 10.8011ZM11.7988 1.13097V0.202876H13.0292L12.6912 1.38594L11.7988 1.13097ZM9.07487 3.06118L9.94969 3.3711L9.94898 3.3731L9.07487 3.06118ZM8.98566 3.28946L9.83353 3.66691L9.83331 3.6674L8.98566 3.28946ZM8.86185 3.53725L9.56074 4.1479L8.9536 4.84279L8.25523 4.23965L8.86185 3.53725ZM8.85824 3.53413L8.03819 3.09953L8.58351 2.07057L9.46486 2.83173L8.85824 3.53413ZM7.13353 6.54143L7.93721 7.0056L7.93683 7.00627L7.13353 6.54143ZM7.09663 6.81776L6.20045 7.05904L6.19967 7.05614L7.09663 6.81776ZM7.2662 7.03898L6.80393 7.84376L6.8022 7.84276L7.2662 7.03898ZM8.03074 6.83367L7.22579 6.37168L7.22707 6.36947L8.03074 6.83367ZM9.02437 5.11337L8.2207 4.64917L8.22127 4.6482L9.02437 5.11337ZM9.3189 4.99169L9.07873 5.88817L9.07643 5.88755L9.3189 4.99169ZM9.94209 11.1437L9.89307 12.0705L9.88114 12.0698L9.94209 11.1437ZM10.3014 11.0097L10.9577 11.666L10.9571 11.6665L10.3014 11.0097ZM10.96 7.14619H11.8881V7.14623L10.96 7.14619ZM10.9598 11.4871H10.0317V11.4871L10.9598 11.4871ZM11.7483 11.814L12.4052 12.4696L12.4039 12.4709L11.7483 11.814ZM12.4069 7.14619H13.335V7.14623L12.4069 7.14619ZM12.4067 10.6425H11.4786V10.6425L12.4067 10.6425ZM13.1954 11.0093L13.851 11.6662L13.8504 11.6668L13.1954 11.0093ZM13.854 7.14601H14.7821V7.14612L13.854 7.14601ZM13.8536 9.81581H12.9255V9.8157L13.8536 9.81581ZM14.6416 10.1428L15.2979 10.7991L15.2973 10.7997L14.6416 10.1428ZM14.7766 9.81581H13.8485V9.81579L14.7766 9.81581ZM14.7767 4.40433H15.7048V4.40435L14.7767 4.40433ZM11.7988 1.13102V2.05912H10.5684L10.9064 0.876056L11.7988 1.13102ZM14.3151 11.7292C13.9734 11.7292 13.6683 11.6346 13.4151 11.4988L14.2922 9.86298C14.3042 9.86941 14.3118 9.87187 14.3149 9.87269C14.3175 9.87339 14.3171 9.87303 14.3151 9.87303V11.7292ZM14.7817 10.6809V10.6829H12.9256V10.6809H14.7817ZM14.7817 10.6829C14.7817 11.192 14.582 11.6764 14.2206 12.0368L12.9098 10.7226C12.9164 10.716 12.9197 10.7103 12.9216 10.7057C12.9236 10.701 12.9256 10.6939 12.9256 10.6829H14.7817ZM14.2214 12.036C13.8613 12.3961 13.3777 12.5963 12.8684 12.5963V10.7401C12.879 10.7401 12.886 10.7381 12.8908 10.7362C12.8955 10.7342 12.9017 10.7307 12.9089 10.7234L14.2214 12.036ZM12.8684 12.5963C12.5222 12.5963 12.2133 12.4994 11.9571 12.3599L12.8448 10.7298C12.8569 10.7364 12.8646 10.7389 12.8676 10.7397C12.8702 10.7404 12.87 10.7401 12.8684 10.7401V12.5963ZM13.3275 11.599C13.3008 12.0558 13.1155 12.4989 12.775 12.8397L11.4618 11.5278C11.4653 11.5244 11.4673 11.5214 11.4689 11.5175C11.4708 11.5133 11.4736 11.5048 11.4745 11.4907L13.3275 11.599ZM12.7747 12.84C12.4145 13.2003 11.9308 13.4003 11.4214 13.4003V11.5441C11.4322 11.5441 11.4393 11.5422 11.444 11.5402C11.4488 11.5382 11.4549 11.5347 11.4622 11.5275L12.7747 12.84ZM11.4214 13.4003C10.3968 13.4003 9.57464 12.5962 9.51545 11.5997L11.3684 11.4896C11.3693 11.5054 11.3758 11.5193 11.3872 11.5302C11.3928 11.5355 11.3984 11.5389 11.4033 11.5409C11.4077 11.5427 11.4131 11.5441 11.4214 11.5441V13.4003ZM10.8832 12.3612C10.5834 12.5232 10.228 12.6166 9.84827 12.5922L9.96727 10.7398C9.96729 10.7398 9.96927 10.74 9.97416 10.7389C9.9794 10.7377 9.98847 10.7348 10.0006 10.7282L10.8832 12.3612ZM9.84704 12.5921C8.81655 12.5246 8.06115 11.6482 8.06115 10.6525H9.91734C9.91734 10.6839 9.92873 10.7081 9.94302 10.7238C9.95693 10.7392 9.96638 10.7398 9.96851 10.7399L9.84704 12.5921ZM8.06115 10.6525V6.22091H9.91734V10.6525H8.06115ZM9.79304 6.68488L9.28842 7.55911L7.68082 6.63118L8.18545 5.75695L9.79304 6.68488ZM9.28926 7.55765C8.93064 8.18157 8.2631 8.56523 7.54527 8.56523V6.70904C7.60218 6.70904 7.6542 6.67749 7.67998 6.63265L9.28926 7.55765ZM7.54527 8.56523C7.1943 8.56523 6.84882 8.4732 6.5435 8.29825L7.46634 6.68772C7.4913 6.70202 7.51873 6.70904 7.54527 6.70904V8.56523ZM6.53944 8.29591C6.12275 8.05434 5.81946 7.66121 5.69436 7.193L7.48764 6.71387C7.4868 6.7107 7.48448 6.7051 7.48001 6.69927C7.47558 6.69349 7.47147 6.69069 7.47041 6.69007L6.53944 8.29591ZM5.69464 7.19404C5.56905 6.72617 5.6348 6.23272 5.87705 5.81435L7.48338 6.74447C7.4847 6.74219 7.48702 6.73689 7.48802 6.72939C7.48901 6.72187 7.48818 6.71587 7.48736 6.71283L5.69464 7.19404ZM6.68021 5.35132C6.22495 5.47065 5.88419 5.80224 5.88164 5.80651C5.88079 5.80794 5.87953 5.81009 5.87913 5.81078C5.8789 5.81117 5.8785 5.81185 5.87837 5.81208C5.87828 5.81222 5.87812 5.81252 5.87807 5.81259C5.87794 5.81281 5.87798 5.81274 5.87833 5.81214C5.87896 5.81105 5.88002 5.80922 5.88156 5.80656C5.88461 5.80129 5.88919 5.79336 5.89524 5.78289C5.90732 5.76198 5.92508 5.73125 5.94775 5.692C5.99308 5.61352 6.05796 5.50119 6.13614 5.36582C6.29249 5.09509 6.502 4.73226 6.71466 4.36395C7.14068 3.62609 7.57744 2.86944 7.62691 2.78318L9.23709 3.70663C9.18584 3.79598 8.74679 4.55658 8.32214 5.29207C8.10946 5.66043 7.89992 6.02331 7.74353 6.29411C7.66534 6.4295 7.60043 6.54189 7.55505 6.62045C7.53237 6.65972 7.51454 6.69057 7.50237 6.71163C7.4963 6.72214 7.49159 6.73029 7.48837 6.73585C7.48678 6.7386 7.48547 6.74088 7.4845 6.74254C7.48406 6.74331 7.4835 6.74428 7.48296 6.74519C7.48277 6.74553 7.48217 6.74656 7.48146 6.74778C7.481 6.74855 7.4797 6.75077 7.47883 6.75224C7.47626 6.75656 7.13548 7.08817 6.68021 7.2075V5.35132ZM7.58674 2.86164C7.59695 2.83911 7.62932 2.76647 7.65909 2.69952L9.35513 3.45377C9.32685 3.51737 9.29099 3.59789 9.27726 3.62816L7.58674 2.86164ZM7.6591 2.69951C7.672 2.67051 7.68627 2.63345 7.70665 2.57596L9.45614 3.19622C9.43094 3.2673 9.39765 3.35815 9.35512 3.45379L7.6591 2.69951ZM7.70657 2.57621C8.33515 0.801597 9.91733 -0.320667 11.7988 -0.320667V1.53552C10.7067 1.53552 9.82337 2.15946 9.45623 3.19596L7.70657 2.57621ZM11.7988 -0.320667C14.3114 -0.320667 16.2283 1.87027 16.2283 4.4042H14.3721C14.3721 2.75101 13.1475 1.53552 11.7988 1.53552V-0.320667ZM16.2283 4.40417L16.2284 9.81566L14.3722 9.81572L14.3721 4.40423L16.2283 4.40417ZM16.2284 9.81569C16.2284 10.3246 16.0287 10.808 15.6691 11.1683L14.3553 9.85703C14.3627 9.84968 14.3662 9.84343 14.3683 9.83855C14.3703 9.83367 14.3722 9.82651 14.3722 9.81569H16.2284ZM15.6685 11.1689C15.3082 11.5292 14.8246 11.7292 14.3151 11.7292V9.87305C14.326 9.87305 14.3331 9.87107 14.3378 9.86911C14.3426 9.86715 14.3487 9.86366 14.3559 9.85642L15.6685 11.1689ZM13.8287 10.0107L13.8287 10.0107L14.8015 11.5915L14.8015 11.5916L13.8287 10.0107ZM11.7988 2.05906C10.9164 2.05906 10.2473 2.5311 9.94969 3.3711L8.20005 2.75126C8.75882 1.17401 10.1262 0.202876 11.7988 0.202876V2.05906ZM9.94898 3.3731C9.91968 3.45519 9.88162 3.55888 9.83353 3.66691L8.13779 2.912C8.15628 2.87047 8.17529 2.82066 8.20076 2.74926L9.94898 3.3731ZM9.83331 3.6674C9.79081 3.76272 9.7552 3.84322 9.72796 3.89775C9.71105 3.93159 9.68367 3.98375 9.64396 4.04152C9.60374 4.10005 9.56398 4.1442 9.56074 4.1479L8.16295 2.92659C8.16513 2.9241 8.16441 2.92491 8.16331 2.92619C8.1619 2.92783 8.15829 2.93204 8.15356 2.93781C8.14865 2.94378 8.14248 2.9515 8.13552 2.96068C8.1285 2.96994 8.12136 2.97979 8.11422 2.99018C8.09968 3.01134 8.08848 3.02987 8.08052 3.04389C8.07309 3.05697 8.06854 3.06602 8.06752 3.06806C8.06647 3.07017 8.06713 3.06893 8.07028 3.06218C8.07334 3.05564 8.07766 3.04621 8.08387 3.0325C8.09002 3.0189 8.0974 3.00248 8.10647 2.98219C8.11553 2.96193 8.12588 2.93872 8.13801 2.91151L9.83331 3.6674ZM8.25523 4.23965L8.25162 4.23653L9.46486 2.83173L9.46847 2.83484L8.25523 4.23965ZM9.67828 3.96873C9.53303 4.24281 9.11835 4.96054 7.93721 7.0056L6.32985 6.07726C7.52758 4.00347 7.91385 3.33416 8.03819 3.09953L9.67828 3.96873ZM7.93683 7.00627C8.01109 6.87794 8.03178 6.7231 7.99359 6.57938L6.19967 7.05614C6.11162 6.72482 6.15823 6.37384 6.33024 6.07659L7.93683 7.00627ZM7.99281 6.57648C7.95462 6.43463 7.86076 6.31057 7.7302 6.23521L6.8022 7.84276C6.50405 7.67064 6.28915 7.3885 6.20045 7.05904L7.99281 6.57648ZM7.72847 6.23421C7.62282 6.17352 7.52008 6.17393 7.44913 6.19303C7.37845 6.21206 7.28783 6.2636 7.2258 6.37169L8.83568 7.29565C8.4312 8.0004 7.5068 8.24749 6.80394 7.84376L7.72847 6.23421ZM7.22707 6.36947L8.2207 4.64917L9.82804 5.57756L8.8344 7.29786L7.22707 6.36947ZM8.22127 4.6482C8.48934 4.18538 9.0365 3.95377 9.56137 4.09583L9.07643 5.88755C9.37105 5.96729 9.67814 5.83636 9.82747 5.57854L8.22127 4.6482ZM9.55907 4.09521C10.0797 4.2347 10.441 4.70654 10.441 5.24456H8.58481C8.58481 5.54578 8.78699 5.81001 9.07873 5.88816L9.55907 4.09521ZM10.441 5.24456V10.6527H8.58481V5.24456H10.441ZM10.441 10.6527C10.441 10.5469 10.4018 10.4508 10.3375 10.3772C10.2733 10.3038 10.16 10.2279 10.003 10.2176L9.88114 12.0698C9.09986 12.0183 8.58481 11.3378 8.58481 10.6527H10.441ZM9.9911 10.2169C9.88145 10.2111 9.7475 10.2512 9.64571 10.3529L10.9571 11.6665C10.6641 11.959 10.2756 12.0907 9.89307 12.0705L9.9911 10.2169ZM9.64513 10.3534C9.55706 10.4415 9.5081 10.5622 9.5081 10.6832H11.3643C11.3643 11.0518 11.2196 11.404 10.9577 11.666L9.64513 10.3534ZM9.5081 10.6832V7.14619H11.3643V10.6832H9.5081ZM9.5081 7.14619C9.5081 6.48898 10.0409 5.9562 10.6981 5.9562V7.81239C11.066 7.81239 11.3643 7.51412 11.3643 7.14619H9.5081ZM10.6981 5.9562C11.3549 5.9562 11.8881 6.48845 11.8881 7.14619H10.0319C10.0319 7.51433 10.3305 7.81239 10.6981 7.81239V5.9562ZM11.8881 7.14623L11.8879 11.4872L10.0317 11.4871L10.0319 7.14616L11.8881 7.14623ZM11.8879 11.4871C11.8879 11.2291 11.6795 11.0207 11.4215 11.0207V12.8769C10.6544 12.8769 10.0317 12.2542 10.0317 11.4871H11.8879ZM11.4215 11.0207C11.3007 11.0207 11.1806 11.0694 11.0927 11.1571L12.4039 12.4709C12.1419 12.7324 11.7896 12.8769 11.4215 12.8769V11.0207ZM11.0914 11.1583C11.0037 11.2462 10.955 11.3664 10.955 11.4871H12.8112C12.8112 11.8552 12.6668 12.2075 12.4052 12.4696L11.0914 11.1583ZM10.955 11.4871V7.14619H12.8112V11.4871H10.955ZM10.955 7.14619C10.955 6.48936 11.4872 5.9562 12.145 5.9562V7.81239C12.5131 7.81239 12.8112 7.51374 12.8112 7.14619H10.955ZM12.145 5.9562C12.8018 5.9562 13.335 6.48844 13.335 7.14619H11.4788C11.4788 7.51433 11.7774 7.81239 12.145 7.81239V5.9562ZM13.335 7.14623L13.3348 10.6425L11.4786 10.6425L11.4788 7.14615L13.335 7.14623ZM13.3348 10.6425V10.6832H11.4786V10.6425H13.3348ZM13.3348 10.6832C13.3348 10.4245 13.126 10.2165 12.8685 10.2165V12.0727C12.1017 12.0727 11.4786 11.4505 11.4786 10.6832H13.3348ZM12.8685 10.2165C12.7452 10.2165 12.6258 10.2667 12.5403 10.3519L13.8504 11.6668C13.5898 11.9265 13.2388 12.0727 12.8685 12.0727V10.2165ZM12.5397 10.3525C12.4509 10.4411 12.4021 10.5622 12.4021 10.683H14.2583C14.2583 11.0515 14.1136 11.4041 13.851 11.6662L12.5397 10.3525ZM12.4021 10.683V7.14601H14.2583V10.683H12.4021ZM12.4021 7.14601C12.4021 6.48917 12.9343 5.95602 13.5921 5.95602V7.8122C13.9602 7.8122 14.2583 7.51357 14.2583 7.14601H12.4021ZM13.5921 5.95602C14.2489 5.95602 14.7821 6.48825 14.7821 7.14601H12.9259C12.9259 7.51415 13.2245 7.8122 13.5921 7.8122V5.95602ZM14.7821 7.14612L14.7817 9.81593L12.9255 9.8157L12.9259 7.14589L14.7821 7.14612ZM14.7817 9.81581C14.7817 9.55836 14.5738 9.34953 14.3151 9.34953V11.2057C13.5477 11.2057 12.9255 10.5826 12.9255 9.81581H14.7817ZM14.3151 9.34953C14.1934 9.34953 14.0733 9.39882 13.986 9.48594L15.2973 10.7997C15.0361 11.0603 14.6845 11.2057 14.3151 11.2057V9.34953ZM13.9853 9.48656C13.897 9.57493 13.8485 9.69555 13.8485 9.81581H15.7047C15.7047 10.1834 15.5607 10.5362 15.2979 10.7991L13.9853 9.48656ZM13.8485 9.81579L13.8486 4.4043L15.7048 4.40435L15.7047 9.81584L13.8485 9.81579ZM13.8486 4.40433C13.8486 3.02759 12.8476 2.05912 11.7988 2.05912V0.202929C14.0341 0.202929 15.7048 2.17161 15.7048 4.40433H13.8486ZM10.9064 0.876056L10.9064 0.876002L12.6912 1.38594L12.6912 1.38599L10.9064 0.876056Z" fill="#044170" mask="url(#path-1-inside-1_1_1289)"/>
<path d="M5.83255 15.776C5.70824 15.8508 5.54753 15.8105 5.47324 15.6863C5.39879 15.5624 5.43913 15.4015 5.56294 15.327M5.83255 15.776L8.09515 12.7315C8.31375 12.6002 8.60205 12.652 8.73685 12.847M5.83255 15.776L8.86542 13.9565H8.86558L8.86591 13.9564M5.83255 15.776L10.0299 14.3347C10.1359 14.2711 10.2106 14.1704 10.2405 14.0508M5.56294 15.327L8.59598 13.5075C8.70192 13.4439 8.77686 13.343 8.80671 13.2238M5.56294 15.327L5.59365 15.3782L5.69765 15.5516L5.69786 15.5519L5.74472 15.63L5.80166 15.725L5.80178 15.7249L5.80184 15.7249L5.80208 15.7247M5.56294 15.327L5.5937 15.3782M8.80671 13.2238C8.83951 13.093 8.81458 12.9591 8.73685 12.847M8.80671 13.2238L8.88157 13.2426L8.87442 13.0887C8.8695 12.9828 8.83851 12.8888 8.78609 12.8132L8.78595 12.813L8.73685 12.847M8.80671 13.2238L8.88157 13.2426L8.88895 13.4014L8.73711 13.4925H8.7369L8.62669 13.5586L8.62667 13.5586L8.62664 13.5586L5.59382 15.3781M8.73685 12.847L8.78591 12.813L6.54659 16.9655C6.64182 16.9082 6.67332 16.7843 6.61558 16.6882C6.55832 16.5928 6.43405 16.5615 6.33834 16.6188L9.37122 14.7994C9.44092 14.7576 9.51395 14.726 9.58853 14.7043L10.0589 14.3831L10.059 14.383L10.0848 14.3654C10.1952 14.29 10.2682 14.1856 10.2982 14.0654L10.2983 14.0653L10.2405 14.0508M5.59382 15.3781C5.68926 15.3211 5.8135 15.352 5.87107 15.4474C5.87119 15.4476 5.87131 15.4479 5.87144 15.4481C5.92867 15.5441 5.8971 15.6676 5.80208 15.7247M5.59382 15.3781C5.59378 15.3781 5.59374 15.3782 5.5937 15.3782M5.59382 15.3781L5.5937 15.3782M5.80208 15.7247L8.8347 13.9055L8.83475 13.9054L8.83491 13.9053C8.835 13.9053 8.8351 13.9052 8.83519 13.9052L8.86542 13.9556L8.86558 13.9558L8.86591 13.9564M5.80208 15.7247L5.69809 15.5518L5.69788 15.5514L5.6627 15.4929L5.5937 15.3782M8.86591 13.9564V13.8859C8.92443 13.8476 8.97798 13.8031 9.02581 13.7536L9.52503 13.493L9.52505 13.493L9.55269 13.4785C9.63295 13.4367 9.71387 13.4171 9.79074 13.4171C9.83231 13.4171 9.87518 13.4222 9.91885 13.433C9.91888 13.4331 9.9189 13.4331 9.91893 13.4331C9.91908 13.4331 9.91922 13.4331 9.91937 13.4332L10.0171 13.0408M8.86591 13.9564L9.555 13.543C9.66061 13.4796 9.78426 13.4611 9.90447 13.491C10.024 13.5208 10.1249 13.5956 10.1883 13.7014C10.2518 13.8073 10.2703 13.9314 10.2405 14.0508M10.0171 13.0408C10.017 13.0408 10.017 13.0408 10.017 13.0408M10.0171 13.0408C10.2562 13.1005 10.4595 13.2515 10.5862 13.4625L10.6373 13.4319M10.0171 13.0408L10.0315 12.9829M10.017 13.0408L9.919 13.4331C10.0548 13.467 10.1673 13.5504 10.2393 13.6705C10.2393 13.6706 10.2394 13.6707 10.2394 13.6707C10.2394 13.6707 10.2394 13.6707 10.2394 13.6708C10.3117 13.7915 10.3321 13.9299 10.2983 14.0651L10.2983 14.0653L10.2405 14.0508M10.017 13.0408C10.017 13.0408 10.0169 13.0407 10.0169 13.0407L10.0163 13.0406C9.94459 13.0228 9.87193 13.0137 9.79965 13.013M10.017 13.0408L10.0315 12.9829M9.5794 15.1461L9.84101 14.9892L10.1108 15.1483C10.1915 15.1959 10.2526 15.2556 10.2939 15.3246L10.294 15.3248C10.2941 15.3249 10.2941 15.325 10.2942 15.3251L10.2433 15.3557M9.5794 15.1461L10.3532 15.7197C10.3869 15.584 10.3664 15.4457 10.2942 15.3251L10.2433 15.3557M9.5794 15.1461L9.6101 15.1973M9.5794 15.1461L9.57938 15.1461L9.6101 15.1973M10.2433 15.3557C10.1122 15.1374 9.82805 15.0664 9.6101 15.1973M10.2433 15.3557C10.3069 15.4615 10.3254 15.5858 10.2956 15.7053L9.6101 15.1973M10.6855 15.0754C10.6877 15.079 10.6899 15.0826 10.6921 15.0863L10.6855 15.0754ZM10.6855 15.0754C10.6698 15.0876 10.6539 15.0996 10.6377 15.1112C10.6388 15.1129 10.6398 15.1147 10.6409 15.1165L10.6855 15.0754ZM10.6132 14.3676C10.6467 14.3035 10.6728 14.2351 10.6907 14.1634L10.6132 14.3676ZM10.6132 14.3676C10.6299 14.378 10.6464 14.3887 10.6628 14.3998C10.7 14.3305 10.7289 14.2562 10.7485 14.1777C10.8123 13.9227 10.7727 13.6579 10.6373 13.4319M10.6132 14.3676L10.6907 14.1633C10.7505 13.9241 10.7128 13.6738 10.5864 13.4629L10.5863 13.4626C10.5862 13.4626 10.5862 13.4625 10.5862 13.4625L10.6373 13.4319M10.6373 13.4319C10.502 13.2062 10.2868 13.0467 10.0315 12.9829M10.0315 12.9829L9.79441 12.953M9.79441 12.953C9.79656 12.973 9.7983 12.9931 9.79965 13.013M9.79441 12.953C9.79319 12.953 9.79196 12.953 9.79074 12.953C9.63381 12.953 9.47965 12.9932 9.33796 13.0672M9.79441 12.953L9.33796 13.0672M9.79965 13.013C9.80039 13.0239 9.801 13.0348 9.80151 13.0456L9.79074 13.0461L9.50264 13.0595M9.79965 13.013C9.79668 13.013 9.79371 13.013 9.79074 13.013C9.69282 13.0131 9.59569 13.0288 9.50264 13.0595M9.50264 13.0595L9.33796 13.0672M9.50264 13.0595C9.4554 13.0751 9.4092 13.0947 9.3645 13.118C9.34827 13.1265 9.33224 13.1355 9.31643 13.1449L9.31626 13.145L9.28327 13.1648M9.33796 13.0672L9.07348 13.2907L9.07357 13.2906L9.25686 13.3365C9.25685 13.3366 9.25684 13.3366 9.25683 13.3366C9.27114 13.2796 9.27989 13.2221 9.28327 13.1648M9.33796 13.0672L9.26712 12.9314M9.33796 13.0672C9.33062 12.9091 9.28894 12.7534 9.20895 12.6144C9.19076 12.6225 9.17274 12.6309 9.15489 12.6397M9.28327 13.1648C9.28514 13.133 9.28536 13.1013 9.28394 13.0697C9.28185 13.0231 9.27621 12.9769 9.26712 12.9314M9.28327 13.1648L9.26712 12.9314M9.26712 12.9314L9.12323 12.6558C9.13372 12.6503 9.14428 12.645 9.15489 12.6397M9.26712 12.9314L9.11836 12.5828C9.13126 12.6014 9.14344 12.6204 9.15489 12.6397M9.26712 12.9314C9.24673 12.8294 9.20896 12.7309 9.15489 12.6397M10.3465 14.7486L10.4258 14.6141C10.3915 14.6463 10.3545 14.6759 10.3152 14.7028C10.3001 14.7131 10.2847 14.723 10.2689 14.7325L10.2686 14.7326L10.2351 14.7528L10.3465 14.7486ZM2.93572 12.589L2.88296 12.5612C2.87326 12.5787 2.84911 12.6222 2.81345 12.6864C2.80462 12.7023 2.79508 12.7195 2.78488 12.7379C2.80306 12.747 2.8214 12.7549 2.83977 12.7618C2.87115 12.7053 2.90312 12.6477 2.93572 12.589ZM7.0827 17.8596C7.08265 17.8596 7.0826 17.8597 7.08255 17.8597L7.0827 17.8596Z" fill="#044170" stroke="#044170" stroke-width="0.928093"/>
<path d="M18.7845 13.4251L18.7844 13.4251L18.7845 13.4251ZM18.7845 13.4251C18.6873 13.2509 18.6912 13.0364 18.7942 12.8647L18.7845 13.4251ZM13.0429 13.0128C12.9704 13.0134 12.8975 13.0226 12.8256 13.0406L13.0429 13.0128ZM13.0429 13.0128C13.0443 12.9929 13.046 12.9729 13.0482 12.9529L13.0429 13.0128ZM18.3669 13.7505L18.3274 13.6795L18.3669 13.7505ZM17.2487 15.378C17.2486 15.378 17.2485 15.3779 17.2484 15.3778L17.2486 15.3779L17.2487 15.378ZM15.7598 17.86C15.7597 17.8599 15.7596 17.8598 15.7595 17.8598L15.7598 17.86ZM15.7594 17.8597L15.7595 17.8598L15.7594 17.8597Z" fill="#044170" stroke="#044170" stroke-width="0.928093"/>
</svg>
